<?xml version="1.0" encoding="UTF-8"?>
<svg width="10px" height="10px" viewBox="0 0 10 10" version="1.1" xmlns="http://www.w3.org/2000/svg" xmlns:xlink="http://www.w3.org/1999/xlink">
    <!-- Generator: Sketch 43.1 (39012) - http://www.bohemiancoding.com/sketch -->
    <title>instagram</title>
    <desc>Created with Sketch.</desc>
    <defs></defs>
    <g id="Symbols" stroke="none" stroke-width="1" fill="none" fill-rule="evenodd">
        <g id="meta-bar" transform="translate(-163.000000, -15.000000)" fill-rule="nonzero" fill="#030100">
            <g id="meta-top-bar">
                <g id="instagram" transform="translate(163.000000, 15.000000)">
                    <path d="M8.8671875,8.45052083 L8.8671875,4.23177083 L7.98828125,4.23177083 C8.07508681,4.50520833 8.11848958,4.78949653 8.11848958,5.08463542 C8.11848958,5.63151042 7.97960069,6.13606771 7.70182292,6.59830729 C7.42404514,7.06054688 7.04644097,7.42621528 6.56901042,7.6953125 C6.09157986,7.96440972 5.57074653,8.09895833 5.00651042,8.09895833 C4.15147569,8.09895833 3.42013889,7.80490451 2.8125,7.21679688 C2.20486111,6.62868924 1.90104167,5.91796875 1.90104167,5.08463542 C1.90104167,4.78949653 1.94444444,4.50520833 2.03125,4.23177083 L1.11328125,4.23177083 L1.11328125,8.45052083 C1.11328125,8.56336806 1.15125868,8.6577691 1.22721354,8.73372396 C1.3031684,8.80967882 1.39756944,8.84765625 1.51041667,8.84765625 L8.47005208,8.84765625 C8.57855903,8.84765625 8.671875,8.80967882 8.75,8.73372396 C8.828125,8.6577691 8.8671875,8.56336806 8.8671875,8.45052083 Z M7.01822917,4.98046875 C7.01822917,4.44227431 6.8218316,3.98328993 6.42903646,3.60351563 C6.03624132,3.22374132 5.56206597,3.03385417 5.00651042,3.03385417 C4.45529514,3.03385417 3.98328993,3.22374132 3.59049479,3.60351563 C3.19769965,3.98328993 3.00130208,4.44227431 3.00130208,4.98046875 C3.00130208,5.51866319 3.19769965,5.97764757 3.59049479,6.35742188 C3.98328993,6.73719618 4.45529514,6.92708333 5.00651042,6.92708333 C5.56206597,6.92708333 6.03624132,6.73719618 6.42903646,6.35742188 C6.8218316,5.97764757 7.01822917,5.51866319 7.01822917,4.98046875 Z M8.8671875,2.63671875 L8.8671875,1.5625 C8.8671875,1.44097222 8.82378472,1.33572049 8.73697917,1.24674479 C8.65017361,1.1577691 8.54383681,1.11328125 8.41796875,1.11328125 L7.28515625,1.11328125 C7.15928819,1.11328125 7.05295139,1.1577691 6.96614583,1.24674479 C6.87934028,1.33572049 6.8359375,1.44097222 6.8359375,1.5625 L6.8359375,2.63671875 C6.8359375,2.76258681 6.87934028,2.86892361 6.96614583,2.95572917 C7.05295139,3.04253472 7.15928819,3.0859375 7.28515625,3.0859375 L8.41796875,3.0859375 C8.54383681,3.0859375 8.65017361,3.04253472 8.73697917,2.95572917 C8.82378472,2.86892361 8.8671875,2.76258681 8.8671875,2.63671875 Z M10,1.28255208 L10,8.71744792 C10,9.06901042 9.87413194,9.37065972 9.62239583,9.62239583 C9.37065972,9.87413194 9.06901042,10 8.71744792,10 L1.28255208,10 C0.930989583,10 0.629340278,9.87413194 0.377604167,9.62239583 C0.125868056,9.37065972 0,9.06901042 0,8.71744792 L0,1.28255208 C0,0.930989583 0.125868056,0.629340278 0.377604167,0.377604167 C0.629340278,0.125868056 0.930989583,0 1.28255208,0 L8.71744792,0 C9.06901042,0 9.37065972,0.125868056 9.62239583,0.377604167 C9.87413194,0.629340278 10,0.930989583 10,1.28255208 Z" id="Shape"></path>
                </g>
            </g>
        </g>
    </g>
</svg>