<?xml version="1.0" encoding="UTF-8"?>
<svg width="13px" height="13px" viewBox="0 0 13 13" version="1.1" xmlns="http://www.w3.org/2000/svg" xmlns:xlink="http://www.w3.org/1999/xlink">
    <!-- Generator: Sketch 43.1 (39012) - http://www.bohemiancoding.com/sketch -->
    <title>search-icon</title>
    <desc>Created with Sketch.</desc>
    <defs></defs>
    <g id="Symbols" stroke="none" stroke-width="1" fill="none" fill-rule="evenodd">
        <g id="menu-bar" transform="translate(-1122.000000, -115.000000)" fill-rule="nonzero" fill="#E1E1E1">
            <g id="menu" transform="translate(475.000000, 115.000000)">
                <g id="search-icon" transform="translate(647.000000, 0.000000)">
                    <path d="M9,5.5 C9,4.53645833 8.65755208,3.71223958 7.97265625,3.02734375 C7.28776042,2.34244792 6.46354167,2 5.5,2 C4.53645833,2 3.71223958,2.34244792 3.02734375,3.02734375 C2.34244792,3.71223958 2,4.53645833 2,5.5 C2,6.46354167 2.34244792,7.28776042 3.02734375,7.97265625 C3.71223958,8.65755208 4.53645833,9 5.5,9 C6.46354167,9 7.28776042,8.65755208 7.97265625,7.97265625 C8.65755208,7.28776042 9,6.46354167 9,5.5 Z M13,12 C13,12.2708333 12.9010417,12.5052083 12.703125,12.703125 C12.5052083,12.9010417 12.2708333,13 12,13 C11.71875,13 11.484375,12.9010417 11.296875,12.703125 L8.6171875,10.03125 C7.68489583,10.6770833 6.64583333,11 5.5,11 C4.75520833,11 4.04296875,10.8554688 3.36328125,10.5664062 C2.68359375,10.2773438 2.09765625,9.88671875 1.60546875,9.39453125 C1.11328125,8.90234375 0.72265625,8.31640625 0.43359375,7.63671875 C0.14453125,6.95703125 0,6.24479167 0,5.5 C0,4.75520833 0.14453125,4.04296875 0.43359375,3.36328125 C0.72265625,2.68359375 1.11328125,2.09765625 1.60546875,1.60546875 C2.09765625,1.11328125 2.68359375,0.72265625 3.36328125,0.43359375 C4.04296875,0.14453125 4.75520833,0 5.5,0 C6.24479167,0 6.95703125,0.14453125 7.63671875,0.43359375 C8.31640625,0.72265625 8.90234375,1.11328125 9.39453125,1.60546875 C9.88671875,2.09765625 10.2773438,2.68359375 10.5664062,3.36328125 C10.8554688,4.04296875 11,4.75520833 11,5.5 C11,6.64583333 10.6770833,7.68489583 10.03125,8.6171875 L12.7109375,11.296875 C12.9036458,11.4895833 13,11.7239583 13,12 Z" id="Shape"></path>
                </g>
            </g>
        </g>
    </g>
</svg>