<?xml version="1.0" encoding="UTF-8"?>
<svg width="24px" height="20px" viewBox="0 0 24 20" version="1.1" xmlns="http://www.w3.org/2000/svg" xmlns:xlink="http://www.w3.org/1999/xlink">
    <!-- Generator: Sketch 43.2 (39069) - http://www.bohemiancoding.com/sketch -->
    <title>external-link</title>
    <desc>Created with Sketch.</desc>
    <defs></defs>
    <g id="cs3-sthlm-design" stroke="none" stroke-width="1" fill="none" fill-rule="evenodd">
        <g id="external-link" fill-rule="nonzero" fill="#000000">
            <path d="M18.3333333,12.0833333 L18.3333333,16.25 C18.3333333,17.2829861 17.9665799,18.1662326 17.2330729,18.8997396 C16.499566,19.6332465 15.6163194,20 14.5833333,20 L3.75,20 C2.71701389,20 1.83376736,19.6332465 1.10026042,18.8997396 C0.366753472,18.1662326 0,17.2829861 0,16.25 L0,5.41666667 C0,4.38368056 0.366753472,3.50043403 1.10026042,2.76692708 C1.83376736,2.03342014 2.71701389,1.66666667 3.75,1.66666667 L12.9166667,1.66666667 C13.0381944,1.66666667 13.1380208,1.70572917 13.2161458,1.78385417 C13.2942708,1.86197917 13.3333333,1.96180556 13.3333333,2.08333333 L13.3333333,2.91666667 C13.3333333,3.03819444 13.2942708,3.13802083 13.2161458,3.21614583 C13.1380208,3.29427083 13.0381944,3.33333333 12.9166667,3.33333333 L3.75,3.33333333 C3.17708333,3.33333333 2.68663194,3.53732639 2.27864583,3.9453125 C1.87065972,4.35329861 1.66666667,4.84375 1.66666667,5.41666667 L1.66666667,16.25 C1.66666667,16.8229167 1.87065972,17.3133681 2.27864583,17.7213542 C2.68663194,18.1293403 3.17708333,18.3333333 3.75,18.3333333 L14.5833333,18.3333333 C15.15625,18.3333333 15.6467014,18.1293403 16.0546875,17.7213542 C16.4626736,17.3133681 16.6666667,16.8229167 16.6666667,16.25 L16.6666667,12.0833333 C16.6666667,11.9618056 16.7057292,11.8619792 16.7838542,11.7838542 C16.8619792,11.7057292 16.9618056,11.6666667 17.0833333,11.6666667 L17.9166667,11.6666667 C18.0381944,11.6666667 18.1380208,11.7057292 18.2161458,11.7838542 C18.2942708,11.8619792 18.3333333,11.9618056 18.3333333,12.0833333 Z M23.3333333,0.833333333 L23.3333333,7.5 C23.3333333,7.72569444 23.2508681,7.92100694 23.0859375,8.0859375 C22.9210069,8.25086806 22.7256944,8.33333333 22.5,8.33333333 C22.2743056,8.33333333 22.0789931,8.25086806 21.9140625,8.0859375 L19.6223958,5.79427083 L11.1328125,14.2838542 C11.0460069,14.3706597 10.9461806,14.4140625 10.8333333,14.4140625 C10.7204861,14.4140625 10.6206597,14.3706597 10.5338542,14.2838542 L9.04947917,12.7994792 C8.96267361,12.7126736 8.91927083,12.6128472 8.91927083,12.5 C8.91927083,12.3871528 8.96267361,12.2873264 9.04947917,12.2005208 L17.5390625,3.7109375 L15.2473958,1.41927083 C15.0824653,1.25434028 15,1.05902778 15,0.833333333 C15,0.607638889 15.0824653,0.412326389 15.2473958,0.247395833 C15.4123264,0.0824652778 15.6076389,0 15.8333333,0 L22.5,0 C22.7256944,0 22.9210069,0.0824652778 23.0859375,0.247395833 C23.2508681,0.412326389 23.3333333,0.607638889 23.3333333,0.833333333 Z" id="Shape"></path>
        </g>
    </g>
</svg>