<?xml version="1.0" encoding="UTF-8"?>
<svg width="24px" height="24px" viewBox="0 0 24 24" version="1.1" xmlns="http://www.w3.org/2000/svg" xmlns:xlink="http://www.w3.org/1999/xlink"><g id="1920" stroke="none" stroke-width="1" fill="none" fill-rule="evenodd" opacity="0.901901972"><g id="home" transform="translate(-120.000000, -581.000000)" fill="#FFFFFF"><g id="fold-header-section" transform="translate(120.000000, 570.000000)"><g id="date-section"><path d="M6.43263146,11.0005994 C6.1517096,11.0314445 5.94091706,11.271822 5.94702048,11.5543663 L5.94702048,13.1475111 L3.05039354,13.1475111 C1.37889122,13.1475111 0.000415882186,14.5228405 0.000415882186,16.1974889 L0.000415882186,19.4008202 L0.000415882186,19.4689761 C-0.000138627395,19.4831653 -0.000138627395,19.4973707 0.000415882186,19.5115599 L0.000415882186,31.9500222 C0.000415882186,33.6246679 1.37816604,35 3.05039354,35 L20.9498438,35 C22.6220686,35 23.9913021,33.6246679 23.9913021,31.9500222 L23.9913021,19.5456379 C23.9916572,19.5342814 23.9916572,19.5229165 23.9913021,19.5115599 C23.9923895,19.4917005 23.9923895,19.4717965 23.9913021,19.4519371 L23.9913021,16.1974889 C23.9913021,14.5228405 22.6213434,13.1475111 20.9498438,13.1475111 L17.9595025,13.1475111 L17.9595025,11.5543663 C17.9618265,11.406798 17.9042299,11.2645909 17.7998704,11.1602314 C17.695511,11.0558719 17.5533039,10.9982754 17.4057356,11.0005994 C17.2611214,11.0028416 17.123323,11.0624488 17.0226633,11.166304 C16.9220036,11.2701593 16.8667307,11.4097526 16.8690076,11.5543663 L16.8690076,13.1475111 L7.03751532,13.1475111 L7.03751532,11.5543663 C7.0398393,11.406798 6.98224275,11.2645909 6.87788327,11.1602314 C6.77352379,11.0558719 6.6313167,10.9982754 6.48374841,11.0005994 C6.4667188,10.9998002 6.44966108,10.9998002 6.43263146,11.0005994 Z M3.05039354,14.2380059 L5.94702048,14.2380059 L5.94702048,15.8311507 C5.94659307,16.0262334 6.05042307,16.2066804 6.21929876,16.3043454 C6.38817446,16.4020103 6.59636135,16.4020103 6.76523704,16.3043454 C6.93411273,16.2066804 7.03794273,16.0262334 7.03751532,15.8311507 L7.03751532,14.2380059 L16.8690076,14.2380059 L16.8690076,15.8311507 C16.8685802,16.0262334 16.9724102,16.2066804 17.1412859,16.3043454 C17.3101616,16.4020103 17.5183485,16.4020103 17.6872242,16.3043454 C17.8560999,16.2066804 17.9599299,16.0262334 17.9595025,15.8311507 L17.9595025,14.2380059 L20.9498438,14.2380059 C22.0255243,14.2380059 22.9008073,15.1164077 22.9008073,16.1974889 L22.9008073,18.9663125 L1.09091073,18.9663125 L1.09091073,16.1974889 C1.09091073,15.1164077 1.97471035,14.2380059 3.05039354,14.2380059 Z M1.09091073,20.0568074 L22.9008073,20.0568074 L22.9008073,31.9500222 C22.9008073,33.0311116 22.0247991,33.9095052 20.9498438,33.9095052 L3.05039354,33.9095052 C1.97543552,33.9095052 1.09091073,33.0311116 1.09091073,31.9500222 L1.09091073,20.0568074 Z" id="calender"></path></g></g></g></g></svg>