<svg width="14" height="8" viewBox="0 0 14 8" fill="none" xmlns="http://www.w3.org/2000/svg">
<path d="M12.6665 4.5C12.9426 4.5 13.1665 4.27614 13.1665 4C13.1665 3.72386 12.9426 3.5 12.6665 3.5L12.6665 4.5ZM0.999839 4L0.646285 3.64645C0.552517 3.74022 0.499839 3.86739 0.499839 4C0.499839 4.13261 0.552517 4.25979 0.646285 4.35355L0.999839 4ZM3.64629 7.35355C3.84155 7.54882 4.15813 7.54882 4.35339 7.35355C4.54865 7.15829 4.54865 6.84171 4.35339 6.64645L3.64629 7.35355ZM4.35339 1.35355C4.54865 1.15829 4.54865 0.84171 4.35339 0.646448C4.15813 0.451186 3.84155 0.451186 3.64628 0.646448L4.35339 1.35355ZM12.6665 3.5L0.999839 3.5L0.999839 4.5L12.6665 4.5L12.6665 3.5ZM0.646285 4.35355L3.64629 7.35355L4.35339 6.64645L1.35339 3.64645L0.646285 4.35355ZM3.64628 0.646448L0.646285 3.64645L1.35339 4.35355L4.35339 1.35355L3.64628 0.646448Z" fill="white"/>
</svg>
