<svg width="14" height="16" viewBox="0 0 14 16" fill="none" xmlns="http://www.w3.org/2000/svg">
<mask id="path-1-inside-1" fill="white">
<path fill-rule="evenodd" clip-rule="evenodd" d="M0 4.86188C0 4.30625 0.383591 3.62431 0.852382 3.34649L6.14762 0.208365C6.61641 -0.0694549 7.38355 -0.0694549 7.85238 0.208365L13.1476 3.34649C13.6164 3.62431 14 4.30625 14 4.86188V11.1381C14 11.6938 13.6164 12.3757 13.1476 12.6535L7.85238 15.7916C7.38355 16.0695 6.61641 16.0695 6.14762 15.7916L0.852382 12.6535C0.383591 12.3757 0 11.6938 0 11.1381V4.86188"/>
</mask>
<path d="M0.852382 3.34649L1.87203 5.06704L1.87204 5.06704L0.852382 3.34649ZM6.14762 0.208365L5.12797 -1.51219L5.12796 -1.51219L6.14762 0.208365ZM7.85238 0.208365L8.87204 -1.51219L8.87196 -1.51223L7.85238 0.208365ZM13.1476 3.34649L12.128 5.06704L12.128 5.06704L13.1476 3.34649ZM13.1476 12.6535L14.1673 14.3741L14.1673 14.3741L13.1476 12.6535ZM7.85238 15.7916L6.83274 14.071L6.83268 14.0711L7.85238 15.7916ZM6.14762 15.7916L7.16739 14.0711L7.16726 14.071L6.14762 15.7916ZM0.852382 12.6535L-0.167271 14.3741L-0.167261 14.3741L0.852382 12.6535ZM2 4.86188C2 4.94736 1.98631 4.99303 1.98519 4.99681C1.98333 5.00311 1.98527 4.99523 1.99356 4.98051C2.00191 4.96566 2.00646 4.96203 1.99896 4.97026C1.99348 4.97627 1.95532 5.01768 1.87203 5.06704L-0.167271 1.62593C-0.780312 1.98924 -1.21596 2.52738 -1.49277 3.0195C-1.77087 3.51391 -2 4.15954 -2 4.86188H2ZM1.87204 5.06704L7.16727 1.92892L5.12796 -1.51219L-0.167272 1.62593L1.87204 5.06704ZM7.16727 1.92892C7.08333 1.97867 7.02567 1.99373 7.01114 1.99721C6.99417 2.00127 6.99189 2 6.99998 2C7.00808 2 7.0058 2.00127 6.98885 1.99721C6.97433 1.99374 6.91671 1.97868 6.8328 1.92896L8.87196 -1.51223C8.25583 -1.87734 7.57204 -2 6.99998 -2C6.42794 -2 5.74412 -1.87734 5.12797 -1.51219L7.16727 1.92892ZM6.83273 1.92892L12.128 5.06704L14.1673 1.62593L8.87204 -1.51219L6.83273 1.92892ZM12.128 5.06704C12.0447 5.01768 12.0065 4.97627 12.001 4.97026C11.9935 4.96203 11.9981 4.96566 12.0064 4.98051C12.0147 4.99523 12.0167 5.00311 12.0148 4.9968C12.0137 4.99303 12 4.94736 12 4.86188H16C16 4.15954 15.7709 3.51391 15.4928 3.0195C15.216 2.52738 14.7803 1.98924 14.1673 1.62593L12.128 5.06704ZM12 4.86188V11.1381H16V4.86188H12ZM12 11.1381C12 11.0526 12.0137 11.007 12.0148 11.0032C12.0167 10.9969 12.0147 11.0048 12.0064 11.0195C11.9981 11.0344 11.9935 11.038 12.001 11.0298C12.0065 11.0237 12.0447 10.9823 12.128 10.933L14.1673 14.3741C14.7803 14.0108 15.216 13.4726 15.4928 12.9805C15.7709 12.4861 16 11.8404 16 11.1381H12ZM12.128 10.933L6.83274 14.071L8.87202 17.5122L14.1673 14.3741L12.128 10.933ZM6.83268 14.0711C6.9166 14.0213 6.97424 14.0063 6.98878 14.0028C7.00575 13.9987 7.00805 14 6.99998 14C6.99191 14 6.99422 13.9987 7.01121 14.0028C7.02577 14.0063 7.08344 14.0214 7.16739 14.0711L5.12784 17.5121C5.74402 17.8773 6.42789 18 6.99998 18C7.57209 18 8.25593 17.8773 8.87209 17.5121L6.83268 14.0711ZM7.16726 14.071L1.87202 10.933L-0.167261 14.3741L5.12797 17.5122L7.16726 14.071ZM1.87203 10.933C1.95532 10.9823 1.99348 11.0237 1.99896 11.0298C2.00647 11.038 2.00191 11.0344 1.99356 11.0195C1.98528 11.0048 1.98334 10.9969 1.9852 11.0032C1.98632 11.007 2 11.0526 2 11.1381H-2C-2 11.8404 -1.77088 12.4861 -1.49278 12.9805C-1.21597 13.4726 -0.780316 14.0108 -0.167271 14.3741L1.87203 10.933ZM2 11.1381V4.86188H-2V11.1381H2Z" fill="white" mask="url(#path-1-inside-1)"/>
</svg>
