<?xml version="1.0" encoding="UTF-8"?>
<svg width="57px" height="50px" viewBox="0 0 57 50" version="1.1" xmlns="http://www.w3.org/2000/svg" xmlns:xlink="http://www.w3.org/1999/xlink">
    <!-- Generator: Sketch 43.1 (39012) - http://www.bohemiancoding.com/sketch -->
    <title>cs3-logo-mobile</title>
    <desc>Created with Sketch.</desc>
    <defs>
        <polygon id="path-1" points="37.9529955 32.6864865 0.00945945946 32.6864865 0.00945945946 0.0234852818 37.9529955 0.0234852818 37.9529955 32.6864865"></polygon>
    </defs>
    <g id="cs3-sthlm-design" stroke="none" stroke-width="1" fill="none" fill-rule="evenodd">
        <g id="iPhone-7-Plus---home" transform="translate(-20.000000, -20.000000)">
            <g id="cs3-logo-mobile" transform="translate(20.000000, 20.000000)">
                <path d="M22.0513514,22.8440541 C22.2172973,22.8440541 22.382973,22.8748649 22.5489189,22.9372973 C22.7148649,22.9997297 22.8737838,23.1067568 23.0262162,23.2589189 L25.8059459,26.1837838 C24.5889189,27.7740541 23.0640541,28.9737838 21.2318919,29.782973 C19.3991892,30.5918919 17.2313514,30.9962162 14.7283784,30.9962162 C12.4327027,30.9962162 10.3754054,30.6056757 8.55702703,29.8243243 C6.73837838,29.042973 5.19648649,27.9645946 3.93108108,26.5881081 C2.66567568,25.2121622 1.69405405,23.5802703 1.01648649,21.6927027 C0.338648649,19.8048649 0,17.7548649 0,15.5418919 C0,13.2878378 0.387027027,11.2167568 1.16189189,9.32918919 C1.93594595,7.44162162 3.01837838,5.8127027 4.40810811,4.44378378 C5.79810811,3.07459459 7.46081081,2.01 9.3972973,1.24891892 C11.3332432,0.488918919 13.47,0.108108108 15.807027,0.108108108 C16.9410811,0.108108108 18.0094595,0.208648649 19.0121622,0.409189189 C20.0145946,0.60972973 20.9516216,0.885945946 21.822973,1.23891892 C22.6943243,1.59135135 23.4962162,2.01351351 24.2294595,2.50432432 C24.9621622,2.99513514 25.6121622,3.53810811 26.1791892,4.13243243 L23.8145946,7.30648649 C23.6621622,7.50027027 23.4824324,7.67648649 23.2751351,7.83540541 C23.0675676,7.99459459 22.7772973,8.07405405 22.4037838,8.07405405 C22.1551351,8.07405405 21.9194595,8.01891892 21.6986486,7.90837838 C21.477027,7.79756757 21.2421622,7.6627027 20.9932432,7.50351351 C20.7443243,7.34459459 20.4710811,7.17162162 20.1737838,6.98486486 C19.8764865,6.79810811 19.5237838,6.62540541 19.1159459,6.46621622 C18.7078378,6.30756757 18.2305405,6.17243243 17.6843243,6.06189189 C17.1381081,5.95135135 16.4986486,5.89594595 15.7656757,5.89594595 C14.4932432,5.89594595 13.3313514,6.12081081 12.2805405,6.57 C11.2294595,7.01972973 10.327027,7.6627027 9.57351351,8.49945946 C8.81945946,9.33594595 8.23216216,10.3489189 7.81027027,11.5383784 C7.38837838,12.7281081 7.17756757,14.0621622 7.17756757,15.5418919 C7.17756757,17.0908108 7.38837838,18.4667568 7.81027027,19.67 C8.23216216,20.8735135 8.80594595,21.8862162 9.53189189,22.7091892 C10.2581081,23.5321622 11.1051351,24.1581081 12.0732432,24.5862162 C13.0410811,25.0154054 14.0783784,25.2297297 15.1848649,25.2297297 C15.8208108,25.2297297 16.4016216,25.1983784 16.9272973,25.1359459 C17.4527027,25.0740541 17.9402703,24.967027 18.3897297,24.8148649 C18.8391892,24.6624324 19.2678378,24.4654054 19.6759459,24.2232432 C20.0837838,23.9818919 20.4954054,23.6808108 20.9102703,23.3210811 C21.0762162,23.1827027 21.2556757,23.0689189 21.4497297,22.9786486 C21.642973,22.8891892 21.8437838,22.8440541 22.0513514,22.8440541" id="Fill-1" fill="#E7792B"></path>
                <path d="M39.5481081,26.76 C39.9351351,27.6521622 40.1289189,28.7272973 40.1289189,29.9859459 C40.1289189,31.382973 39.8867568,32.6894595 39.4027027,33.9062162 C38.9186486,35.1232432 38.217027,36.1848649 37.2972973,37.0908108 C36.3775676,37.9967568 35.2435135,38.7086486 33.8954054,39.227027 C32.547027,39.7456757 31.0151351,40.0051351 29.3005405,40.0051351 C28.7164865,40.0051351 28.1248649,39.9632432 27.5278378,39.8883784 L27.5278378,34.2005405 C28.1121622,34.3621622 28.7702703,34.4459459 29.5081081,34.4459459 C30.7802703,34.4459459 31.7689189,34.1654054 32.4743243,33.6056757 C33.1794595,33.0456757 33.5321622,32.157027 33.5321622,30.94 C33.5321622,30.2345946 33.3383784,29.6608108 32.9513514,29.2181081 C32.5640541,28.7756757 32.0559459,28.4089189 31.4267568,28.1189189 C30.7972973,27.8283784 30.0816216,27.5727027 29.2797297,27.3510811 C28.4775676,27.1302703 27.6545946,26.8843243 26.8113514,26.6148649 C25.9675676,26.3451351 25.1443243,26.0132432 24.3427027,25.6189189 C23.5405405,25.2248649 22.8245946,24.7062162 22.1956757,24.0632432 C21.5659459,23.4202703 21.0578378,22.6183784 20.6708108,21.657027 C20.2835135,20.6959459 20.09,19.51 20.09,18.0991892 C20.09,16.9656757 20.3181081,15.8586486 20.7745946,14.7802703 C21.2310811,13.7016216 21.9016216,12.7405405 22.7867568,11.8967568 C23.6716216,11.0535135 24.7575676,10.3791892 26.0437838,9.87405405 C27.3297297,9.36972973 28.8027027,9.11675676 30.4621622,9.11675676 C31.3886486,9.11675676 32.2908108,9.18972973 33.1691892,9.33486486 C34.0472973,9.48 34.8805405,9.69459459 35.6689189,9.97783784 C36.4572973,10.2613514 37.1937838,10.6 37.8781081,10.9943243 C38.5627027,11.3886486 39.1745946,11.8345946 39.7140541,12.3321622 L37.9716216,15.5891892 C37.7640541,15.9210811 37.5464865,16.17 37.3181081,16.3359459 C37.09,16.5021622 36.7959459,16.5848649 36.4364865,16.5848649 C36.1181081,16.5848649 35.7759459,16.4845946 35.4094595,16.2840541 C35.0432432,16.0840541 34.6281081,15.8586486 34.1648649,15.61 C33.7013514,15.3610811 33.1724324,15.1362162 32.5781081,14.9356757 C31.9832432,14.7356757 31.3054054,14.6351351 30.5451351,14.6351351 C29.2310811,14.6351351 28.2527027,14.9151351 27.6097297,15.4751351 C26.9667568,16.0354054 26.6451351,16.7921622 26.6451351,17.7467568 C26.6451351,18.3554054 26.8389189,18.86 27.2262162,19.2608108 C27.612973,19.6624324 28.1213514,20.0075676 28.7508108,20.2981081 C29.38,20.5886486 30.0991892,20.8551351 30.9083784,21.0967568 C31.717027,21.3389189 32.5435135,21.6086486 33.387027,21.9056757 C34.2305405,22.2035135 35.057027,22.5524324 35.8659459,22.9535135 C36.6751351,23.3545946 37.3940541,23.8662162 38.0235135,24.4886486 C38.6524324,25.1108108 39.1608108,25.8678378 39.5481081,26.76 Z M25.2243243,33.1802703 C25.7564865,33.4986486 26.3683784,33.7891892 27.06,34.0516216 C27.2091892,34.1083784 27.367027,34.1559459 27.5278378,34.2005405 L27.5278378,39.8883784 C27.1632432,39.842973 26.797027,39.7881081 26.4272973,39.7145946 C25.4524324,39.5213514 24.5086486,39.2478378 23.5959459,38.8954054 C22.682973,38.542973 21.8254054,38.1248649 21.0235135,37.64 C20.2213514,37.1564865 19.5227027,36.617027 18.9283784,36.0224324 L21.002973,32.7445946 C21.1548649,32.4959459 21.3691892,32.2951351 21.6459459,32.142973 C21.9224324,31.9910811 22.2194595,31.9148649 22.5378378,31.9148649 C22.9527027,31.9148649 23.3708108,32.0464865 23.7927027,32.3089189 C24.2145946,32.5718919 24.6916216,32.8624324 25.2243243,33.1802703 Z" id="Combined-Shape" fill="#E7792B"></path>
                <g id="Group-7" transform="translate(18.918919, 17.297297)">
                    <mask id="mask-2" fill="white">
                        <use xlink:href="#path-1"></use>
                    </mask>
                    <g id="Clip-4"></g>
                    <path d="M32.6556757,15.4194595 C33.417027,15.1572973 34.0945946,14.8294595 34.6878378,14.4359459 C35.2813514,14.0418919 35.7794595,13.5635135 36.1832432,13.0010811 C36.5864865,12.4386486 36.8910811,11.7735135 37.0981081,11.0056757 C37.3040541,10.2378378 37.4083784,9.34891892 37.4102703,8.33945946 C37.4124324,7.22756757 37.1951351,6.17 36.7581081,5.16702703 C36.3210811,4.16378378 35.6789189,3.28081081 34.8321622,2.51837838 C33.9848649,1.75621622 32.9472973,1.15054054 31.7186486,0.701351351 C30.4905405,0.252702703 29.0862162,0.0267567568 27.5062162,0.0235135135 C26.0427027,0.0208108108 24.6745946,0.212162162 23.4008108,0.597297297 C22.127027,0.982702703 20.9956757,1.56945946 20.0062162,2.35756757 C19.017027,3.14567568 18.1886486,4.13162162 17.5205405,5.31567568 C16.8521622,6.49945946 16.3994595,6.00054054 16.1627027,7.59486486 L19.7605405,9.65459459 C19.9362162,9.68405405 20.1081081,9.70675676 20.2764865,9.72135135 C20.4445946,9.73648649 20.6016216,10.2159459 20.7481081,10.2162162 C21.3627027,10.2172973 21.8491892,10.0724324 22.2086486,9.78 C22.5675676,9.48837838 22.8648649,9.01324324 23.1002703,8.35513514 C23.2472973,7.96054054 23.4418919,7.59540541 23.6840541,7.25891892 C23.9262162,6.92324324 24.2154054,6.63108108 24.5527027,6.3827027 C24.8897297,6.13459459 25.2702703,5.93837838 25.6954054,5.79243243 C26.1194595,5.6472973 26.5878378,5.57486486 27.1,5.57567568 C28.3437838,5.57810811 29.2686486,5.92027027 29.8745946,6.60189189 C30.4802703,7.28351351 30.7821622,8.25351351 30.7797297,9.51189189 C30.7786486,10.1262162 30.7040541,10.6897297 30.557027,11.2010811 C30.4094595,11.7132432 30.1124324,12.1481081 29.6654054,12.5056757 C29.2183784,12.862973 28.5851351,13.1435135 27.7656757,13.3467568 C26.9456757,13.55 25.8697297,13.6502703 24.5383784,13.6478378 L24.5291892,18.3443243 C26.1097297,18.3472973 27.3418919,18.4562162 28.2267568,18.67 C29.1113514,18.8840541 29.7732432,19.1889189 30.2113514,19.5848649 C30.6494595,19.9805405 30.9151351,20.452973 31.0097297,21.0018919 C31.1035135,21.5508108 31.1502703,22.1689189 31.1489189,22.8567568 C31.1478378,23.3835135 31.0510811,23.9027027 30.8602703,24.4145946 C30.6689189,24.9264865 30.3864865,25.382973 30.0127027,25.7848649 C29.6383784,26.1864865 29.1697297,26.5148649 28.6059459,26.7697297 C28.0421622,27.0245946 27.3797297,27.1513514 26.6186486,27.15 C25.6237838,27.1478378 24.3859459,26.7927027 23.6483784,26.2424324 C23.4048649,26.0610811 23.3035135,31.8867568 23.3035135,31.8867568 C24.8724324,32.7027027 25.45,32.7002703 26.6956757,32.7027027 C28.1732432,32.7054054 29.5935135,32.5 30.9548649,32.0856757 C32.3164865,31.6710811 33.5140541,31.0481081 34.547027,30.2159459 C35.5805405,29.3840541 36.4056757,28.3397297 37.0224324,27.0824324 C37.6394595,25.8254054 37.9497297,24.3481081 37.952973,22.6505405 C37.9602703,19.0659459 36.1940541,16.6554054 32.6556757,15.4194595" id="Fill-5" fill="#E7792B" mask="url(#mask-2)"></path>
                    <path d="M25.0418919,26.8656757 C24.3502703,26.6032432 23.7383784,26.3127027 23.2062162,25.9943243 C22.6735135,25.6767568 22.1964865,25.3862162 21.7745946,25.1232432 C21.3527027,24.8605405 20.9345946,24.7289189 20.5197297,24.7289189 C20.2013514,24.7289189 19.9043243,24.8051351 19.6278378,24.957027 C19.3510811,25.1094595 19.1367568,25.31 18.9845946,25.5586486 L16.9102703,28.8364865 C17.5045946,29.4313514 18.2032432,29.9705405 19.0054054,30.4543243 C19.8072973,30.9389189 20.6648649,31.357027 21.5778378,31.7094595 C22.4902703,32.0618919 23.4343243,32.3354054 24.4091892,32.5286486 C24.7789189,32.6021622 25.1451351,32.657027 25.5097297,32.7027027 L25.5097297,27.0145946 C25.3489189,26.9702703 25.1910811,26.9224324 25.0418919,26.8656757" id="Fill-6" fill="#E7792B" mask="url(#mask-2)"></path>
                </g>
                <path d="M6.24081081,44.7181081 C6.21702703,44.7581081 6.19135135,44.7881081 6.16459459,44.8083784 C6.13783784,44.8283784 6.10324324,44.8383784 6.06027027,44.8383784 C6.01459459,44.8383784 5.96189189,44.8156757 5.90162162,44.7702703 C5.84162162,44.7245946 5.76540541,44.6745946 5.67324324,44.6197297 C5.58081081,44.5648649 5.46972973,44.5148649 5.34,44.4691892 C5.21027027,44.4237838 5.05324324,44.4010811 4.86837838,44.4010811 C4.69486486,44.4010811 4.54081081,44.4245946 4.40702703,44.4713514 C4.27324324,44.5178378 4.16162162,44.5816216 4.07216216,44.6618919 C3.98243243,44.7421622 3.91486486,44.8362162 3.86945946,44.9448649 C3.82405405,45.052973 3.80135135,45.1702703 3.80135135,45.2956757 C3.80135135,45.4562162 3.84081081,45.5894595 3.91945946,45.6951351 C3.99837838,45.8008108 4.1027027,45.8910811 4.2327027,45.9659459 C4.36216216,46.0408108 4.50945946,46.1056757 4.67378378,46.1605405 C4.83837838,46.2154054 5.00702703,46.2724324 5.17972973,46.3310811 C5.35189189,46.3897297 5.52054054,46.4559459 5.68513514,46.5297297 C5.84972973,46.6032432 5.99675676,46.6962162 6.12675676,46.8086486 C6.25621622,46.9208108 6.36054054,47.0586486 6.43945946,47.2216216 C6.51837838,47.3851351 6.55783784,47.5856757 6.55783784,47.8237838 C6.55783784,48.0754054 6.51513514,48.3113514 6.42945946,48.5318919 C6.34378378,48.7524324 6.21864865,48.9445946 6.05432432,49.1078378 C5.88972973,49.2708108 5.68756757,49.3991892 5.44837838,49.492973 C5.20891892,49.5864865 4.93675676,49.6332432 4.63189189,49.6332432 C4.26,49.6332432 3.92081081,49.5656757 3.61459459,49.4308108 C3.30837838,49.2956757 3.04675676,49.112973 2.83027027,48.882973 L3.05486486,48.5140541 C3.07621622,48.4843243 3.10243243,48.4594595 3.13297297,48.4394595 C3.16405405,48.4194595 3.19810811,48.4094595 3.23540541,48.4094595 C3.29162162,48.4094595 3.35567568,48.4394595 3.42810811,48.4997297 C3.50027027,48.5602703 3.59054054,48.6262162 3.69891892,48.6983784 C3.80702703,48.7708108 3.93837838,48.837027 4.09216216,48.8972973 C4.24567568,48.9572973 4.43378378,48.9875676 4.65594595,48.9875676 C4.84054054,48.9875676 5.00486486,48.9618919 5.14945946,48.9110811 C5.29378378,48.8602703 5.41621622,48.7886486 5.51675676,48.6962162 C5.61702703,48.6043243 5.69378378,48.4937838 5.7472973,48.3654054 C5.80054054,48.237027 5.82756757,48.0940541 5.82756757,47.9362162 C5.82756757,47.7621622 5.78810811,47.6197297 5.70918919,47.5086486 C5.63027027,47.3978378 5.52675676,47.3048649 5.39810811,47.23 C5.27,47.1548649 5.12351351,47.0913514 4.95891892,47.0394595 C4.79432432,46.987027 4.62594595,46.9335135 4.45324324,46.8789189 C4.28054054,46.8240541 4.11216216,46.7602703 3.94756757,46.6881081 C3.78324324,46.6159459 3.63675676,46.5224324 3.50837838,46.4072973 C3.37972973,46.2924324 3.27621622,46.1486486 3.19756757,45.9759459 C3.11837838,45.8032432 3.07891892,45.59 3.07891892,45.3359459 C3.07891892,45.1327027 3.11837838,44.9359459 3.19756757,44.7459459 C3.27621622,44.5562162 3.39054054,44.3875676 3.54027027,44.2405405 C3.69027027,44.0935135 3.87540541,43.9756757 4.09621622,43.8872973 C4.31675676,43.7991892 4.57027027,43.7548649 4.85648649,43.7548649 C5.17756757,43.7548649 5.47054054,43.8059459 5.73513514,43.9075676 C6.00027027,44.0091892 6.23135135,44.1564865 6.42945946,44.3489189 L6.24081081,44.7181081" id="Fill-8" fill="#E7792B"></path>
                <polyline id="Fill-9" fill="#E7792B" points="12.2675676 43.8194595 12.2675676 44.4732432 10.4097297 44.4732432 10.4097297 49.5691892 9.63135135 49.5691892 9.63135135 44.4732432 7.76567568 44.4732432 7.76567568 43.8194595 12.2675676 43.8194595"></polyline>
                <polyline id="Fill-10" fill="#E7792B" points="18.5513514 49.5691892 17.7689189 49.5691892 17.7689189 46.952973 14.6713514 46.952973 14.6713514 49.5691892 13.8886486 49.5691892 13.8886486 43.8194595 14.6713514 43.8194595 14.6713514 46.3832432 17.7689189 46.3832432 17.7689189 43.8194595 18.5513514 43.8194595 18.5513514 49.5691892"></polyline>
                <polyline id="Fill-11" fill="#E7792B" points="21.5364865 48.9151351 24.0243243 48.9151351 24.0243243 49.5691892 20.7581081 49.5691892 20.7581081 43.8194595 21.5364865 43.8194595 21.5364865 48.9151351"></polyline>
                <path d="M28.6127027,47.6935135 C28.6405405,47.7640541 28.6681081,47.8356757 28.6948649,47.9078378 C28.7216216,47.832973 28.7497297,47.7613514 28.7791892,47.6935135 C28.8083784,47.6251351 28.8418919,47.5562162 28.8794595,47.4867568 L30.8254054,43.9516216 C30.8602703,43.89 30.8964865,43.8527027 30.9340541,43.8394595 C30.9710811,43.8259459 31.0248649,43.8194595 31.0943243,43.8194595 L31.6681081,43.8194595 L31.6681081,49.5691892 L30.9859459,49.5691892 L30.9859459,45.3440541 C30.9859459,45.2878378 30.9872973,45.2275676 30.99,45.1632432 C30.9924324,45.0991892 30.9967568,45.0337838 31.0021622,44.967027 L29.0318919,48.5618919 C28.9648649,48.6824324 28.8713514,48.7424324 28.7508108,48.7424324 L28.6386486,48.7424324 C28.5183784,48.7424324 28.4245946,48.6824324 28.3575676,48.5618919 L26.3435135,44.9548649 C26.3516216,45.0245946 26.3575676,45.0924324 26.3616216,45.1594595 C26.3654054,45.2264865 26.3675676,45.2878378 26.3675676,45.3440541 L26.3675676,49.5691892 L25.6856757,49.5691892 L25.6856757,43.8194595 L26.2591892,43.8194595 C26.3286486,43.8194595 26.3824324,43.8259459 26.4197297,43.8394595 C26.457027,43.8527027 26.4932432,43.89 26.5281081,43.9516216 L28.5140541,47.4908108 C28.5516216,47.5548649 28.5843243,47.6224324 28.6127027,47.6935135" id="Fill-12" fill="#E7792B"></path>
            </g>
        </g>
    </g>
</svg>