<?xml version="1.0" encoding="UTF-8"?>
<svg width="326px" height="86px" viewBox="0 0 326 86" version="1.1" xmlns="http://www.w3.org/2000/svg" xmlns:xlink="http://www.w3.org/1999/xlink">
    <!-- Generator: Sketch 43.2 (39069) - http://www.bohemiancoding.com/sketch -->
    <title>atea-logo</title>
    <desc>Created with Sketch.</desc>
    <defs></defs>
    <g id="cs3sthlm-1280" stroke="none" stroke-width="1" fill="none" fill-rule="evenodd">
        <g id="atea-logo" fill="#5E6F74">
            <polyline id="Fill-3" points="152.944 1.153 92.667 1.153 92.667 11.596 117.498 11.596 117.498 85.65 128.033 85.65 128.033 11.596 152.944 11.596 152.944 1.153"></polyline>
            <path d="M70.096,37.856 L36.275,37.864 L36.275,37.849 L33.52,37.847 L35.024,34.538 C35.024,34.538 44.494,11.679 60.941,11.679 L70.096,11.661 L70.096,37.856 Z M60.94,1.185 C37.825,1.188 26.269,28.281 25.37,30.479 C25.332,30.583 5.298,74.402 0.189,85.553 L11.735,85.553 L28.52,48.709 L70.096,48.709 C70.096,62.614 70.096,77.037 70.094,85.551 L80.583,85.55 L80.582,1.188 L60.94,1.185 L60.94,1.185 Z" id="Fill-4"></path>
            <path d="M255.454,11.152 L264.602,11.172 C281.054,11.17 290.514,34.029 290.514,34.029 L292.027,37.343 L289.262,37.344 L289.264,37.36 L255.451,37.348 L255.454,11.152 Z M245.479,1.198 L245.479,85.561 L255.966,85.564 L255.966,48.717 L297.547,48.717 L314.326,85.561 L325.873,85.564 C320.768,74.416 300.726,30.592 300.695,30.489 C299.807,28.294 288.243,1.196 265.114,1.198 L245.479,1.198 L245.479,1.198 Z" id="Fill-5"></path>
            <path d="M222.774,37.55 L222.774,37.545 L180.71,37.545 L180.71,37.55 C177.514,37.56 174.932,40.104 174.932,43.258 C174.932,46.411 177.518,48.957 180.724,48.96 C180.757,48.957 180.786,48.962 180.826,48.956 L222.668,48.96 C222.7,48.962 222.74,48.96 222.77,48.96 C225.982,48.959 228.589,46.411 228.589,43.261 C228.589,40.104 225.979,37.548 222.774,37.55" id="Fill-6"></path>
            <path d="M153.052,43.439 C153.052,19.958 172.074,0.921 195.52,0.921 C207.149,0.921 218.687,6.333 226.81,15.155 L226.765,15.128 C227.625,16.082 228.147,17.347 228.142,18.739 C228.142,21.714 225.735,24.128 222.755,24.127 C221.209,24.128 219.813,23.471 218.826,22.42 L218.801,22.413 C212.649,15.773 203.959,11.732 195.522,11.729 C178.017,11.732 163.856,25.932 163.857,43.44 C163.857,60.95 178.018,75.149 195.52,75.151 C203.961,75.151 212.649,71.108 218.799,64.466 L218.829,64.457 C219.812,63.412 221.211,62.755 222.758,62.755 C225.733,62.755 228.145,65.167 228.145,68.143 C228.145,69.532 227.624,70.795 226.767,71.744 L226.808,71.724 C218.687,80.548 207.15,85.961 195.52,85.961 C172.074,85.961 153.052,66.926 153.052,43.439" id="Fill-7"></path>
        </g>
    </g>
</svg>