<?xml version="1.0" encoding="utf-8"?>
<!-- Generator: Adobe Illustrator 17.0.0, SVG Export Plug-In . SVG Version: 6.00 Build 0)  -->
<!DOCTYPE svg PUBLIC "-//W3C//DTD SVG 1.1//EN" "http://www.w3.org/Graphics/SVG/1.1/DTD/svg11.dtd">
<svg version="1.1" id="Lager_1" xmlns="http://www.w3.org/2000/svg" xmlns:xlink="http://www.w3.org/1999/xlink" x="0px" y="0px"
	 width="422.5px" height="79.875px" viewBox="0 0 422.5 79.875" enable-background="new 0 0 422.5 79.875" xml:space="preserve">
<g>
	<path fill="#808080" d="M19.223,79.875c-6.281,0-11.057-1.258-14.322-3.775C1.633,73.584,0,69.887,0,65.01V50.75h31.44v5.539
		c0,1.957,0.299,3.379,0.9,4.262c0.602,0.883,1.566,1.324,2.895,1.324c1.359,0,2.348-0.473,2.965-1.42
		c0.617-0.947,0.926-2.512,0.926-4.691c0-2.463-0.293-4.184-0.879-5.164c-0.586-0.979-2.047-1.941-4.387-2.891l-21.312-8.646
		c-4.893-1.994-8.207-4.146-9.943-6.457C0.867,30.295,0,27.129,0,23.107v-8.387C0,9.893,1.633,6.232,4.9,3.74
		C8.166,1.248,12.941,0,19.223,0h31.734C57.234,0,62,1.248,65.25,3.74c3.25,2.492,4.875,6.152,4.875,10.98V24H38.936v-0.986
		c0-1.723-0.34-3.029-1.02-3.924c-0.68-0.892-1.668-1.34-2.965-1.34c-1.109,0-2.002,0.346-2.682,1.037
		c-0.68,0.691-1.02,1.619-1.02,2.783c0,1.133,0.307,2.051,0.924,2.758c0.617,0.707,2.158,1.564,4.627,2.57l24.805,10.5
		c3.154,1.361,5.363,3.268,6.625,5.721c1.262,2.453,1.894,6.166,1.894,11.135v8.713c0,5.795-1.555,10.062-4.662,12.801
		c-3.109,2.738-7.943,4.107-14.506,4.107H19.223z"/>
	<path fill="#808080" d="M76.785,79.25V0.5h49.625v18h-18.875V27h18.875v18h-18.875v16.25h18.875v18H76.785z"/>
	<path fill="#808080" d="M203.087,47.125V62.9c0,6.039-1.51,10.377-4.529,13.016c-3.02,2.641-8.006,3.959-14.961,3.959h-32.029
		c-6.48,0-11.223-1.367-14.227-4.102c-3.004-2.734-4.504-7.025-4.504-12.873V18.789c0-6.879,1.398-11.729,4.195-14.553
		C139.829,1.412,144.675,0,151.567,0h32.029c7.334,0,12.416,1.389,15.246,4.166c2.828,2.777,4.244,7.65,4.244,14.623v10.336h-31.25
		v-5.711c0-2.045-0.305-3.5-0.91-4.365c-0.607-0.865-1.611-1.299-3.012-1.299c-1.34,0-2.312,0.449-2.918,1.346
		c-0.607,0.896-0.91,2.336-0.91,4.318v32.883c0,1.996,0.303,3.447,0.91,4.35c0.605,0.902,1.578,1.354,2.918,1.354
		c1.338,0,2.326-0.459,2.965-1.377c0.637-0.918,0.957-2.361,0.957-4.326v-9.172H203.087z"/>
	<path fill="#808080" d="M222.876,79.25V18.5h-15.876v-18h62.251v18h-15.875v60.75H222.876z"/>
	<path fill="#808080" d="M312.537,79.25V52.389c0-2.084-0.332-3.545-0.996-4.383c-0.664-0.836-1.818-1.256-3.463-1.256h-3.416v32.5
		h-30.75V0.5h49.863c7.145,0,12.25,1.451,15.316,4.352c3.066,2.9,4.6,7.676,4.6,14.328c0,5.297-0.98,9.326-2.939,12.084
		c-1.961,2.758-5.217,4.705-9.768,5.84c4.551,1.076,7.822,3.307,9.814,6.689c1.992,3.385,2.988,8.445,2.988,15.18V79.25H312.537z
		 M304.662,18.5v11h3.416c1.613,0,2.76-0.404,3.44-1.217c0.68-0.811,1.02-2.215,1.02-4.213c0-2.09-0.332-3.541-0.996-4.354
		c-0.664-0.811-1.818-1.217-3.463-1.217H304.662z"/>
	<path fill="#808080" d="M346.625,79.25L360.501,0.5h48.121L422.5,79.25h-31.828l-1.752-17h-8.809l-1.754,17H346.625z
		 M381.248,44.875h6.488l-3.174-26.75L381.248,44.875z"/>
</g>
</svg>
