<?xml version="1.0" encoding="UTF-8"?>
<svg width="6px" height="10px" viewBox="0 0 6 10" version="1.1" xmlns="http://www.w3.org/2000/svg" xmlns:xlink="http://www.w3.org/1999/xlink">
    <!-- Generator: Sketch 43.1 (39012) - http://www.bohemiancoding.com/sketch -->
    <title>facebook</title>
    <desc>Created with Sketch.</desc>
    <defs></defs>
    <g id="Symbols" stroke="none" stroke-width="1" fill="none" fill-rule="evenodd">
        <g id="meta-bar" transform="translate(-122.000000, -15.000000)" fill-rule="nonzero" fill="#030100">
            <g id="meta-top-bar">
                <g id="facebook" transform="translate(122.000000, 15.000000)">
                    <path d="M5.19230769,0.0721153846 L5.19230769,1.65865385 L4.24879808,1.65865385 C3.90424679,1.65865385 3.671875,1.73076923 3.55168269,1.875 C3.43149038,2.01923077 3.37139423,2.23557692 3.37139423,2.52403846 L3.37139423,3.65985577 L5.13221154,3.65985577 L4.89783654,5.43870192 L3.37139423,5.43870192 L3.37139423,10 L1.53245192,10 L1.53245192,5.43870192 L0,5.43870192 L0,3.65985577 L1.53245192,3.65985577 L1.53245192,2.34975962 C1.53245192,1.60456731 1.74078526,1.02664263 2.15745192,0.615985577 C2.57411859,0.205328526 3.12900641,0 3.82211538,0 C4.41105769,0 4.86778846,0.0240384615 5.19230769,0.0721153846 Z" id="Shape"></path>
                </g>
            </g>
        </g>
    </g>
</svg>