<svg width="16" height="16" viewBox="0 0 16 16" fill="none" xmlns="http://www.w3.org/2000/svg">
<path d="M8 16C3.57522 16 0 12.4248 0 8C0 3.57522 3.57522 0 8 0C12.4248 0 16 3.57522 16 8C16 12.4248 12.4248 16 8 16ZM8 0.761062C4 0.761062 0.761062 4 0.761062 8C0.761062 12 4 15.2389 8 15.2389C12 15.2389 15.2389 12 15.2389 8C15.2389 4 12 0.761062 8 0.761062Z" fill="#E1E1E1"/>
<path d="M7.99998 9.52154C7.78759 9.52154 7.6106 9.34455 7.6106 9.13216V4.76047C7.6106 4.54809 7.78759 4.37109 7.99998 4.37109C8.21237 4.37109 8.38936 4.54809 8.38936 4.76047V9.14986C8.38936 9.34455 8.21237 9.52154 7.99998 9.52154Z" fill="#E1E1E1"/>
<path d="M7.99998 11.434C8.21503 11.434 8.38936 11.2597 8.38936 11.0447C8.38936 10.8296 8.21503 10.6553 7.99998 10.6553C7.78493 10.6553 7.6106 10.8296 7.6106 11.0447C7.6106 11.2597 7.78493 11.434 7.99998 11.434Z" fill="#E1E1E1"/>
<path d="M7.99997 11.6279C7.68138 11.6279 7.43359 11.3801 7.43359 11.0615C7.43359 10.7429 7.68138 10.4951 7.99997 10.4951C8.31855 10.4951 8.56634 10.7429 8.56634 11.0615C8.56634 11.3801 8.31855 11.6279 7.99997 11.6279ZM7.99997 10.8668C7.89377 10.8668 7.80528 10.9376 7.80528 11.0615C7.80528 11.1677 7.87607 11.2562 7.99997 11.2562C8.12386 11.2562 8.19466 11.1854 8.19466 11.0615C8.19466 10.9376 8.10616 10.8668 7.99997 10.8668Z" fill="#E1E1E1"/>
</svg>
