<?xml version="1.0" encoding="UTF-8"?>
<svg width="500px" height="94px" viewBox="0 0 500 94" version="1.1" xmlns="http://www.w3.org/2000/svg" xmlns:xlink="http://www.w3.org/1999/xlink">
    <!-- Generator: Sketch 40.3 (33839) - http://www.bohemiancoding.com/sketch -->
    <title>honeywell</title>
    <desc>Created with Sketch.</desc>
    <defs></defs>
    <g id="Page-1" stroke="none" stroke-width="1" fill="none" fill-rule="evenodd">
        <g id="honeywell">
            <polyline id="Fill-1" fill="#DB322A" points="0.108 1.028 22.619 1.028 22.619 31.237 40.129 31.237 40.129 0.835 62.448 0.835 62.448 73.953 40.129 73.953 40.129 40.473 22.426 40.473 22.426 73.57 0.108 73.57 0.108 1.028"></polyline>
            <polygon id="Stroke-2" stroke="#DA332B" stroke-width="0.216" points="0.108 1.028 22.619 1.028 22.619 31.237 40.129 31.237 40.129 0.835 62.448 0.835 62.448 73.953 40.129 73.953 40.129 40.473 22.426 40.473 22.426 73.57 0.108 73.57"></polygon>
            <path d="M98.011,18.883 C98.011,18.883 105.265,18.464 111.102,20.757 C116.938,23.051 121.315,25.643 125.379,32.623 C129.441,39.605 129.914,49.743 127.047,57.977 C124.18,66.206 118.398,70.26 114.542,72.342 C110.685,74.429 104.641,75.509 98.7,75.509 C92.759,75.509 85.155,74.205 80.048,70.139 C74.94,66.076 71.501,61.608 69.939,55.566 C68.376,49.519 67.418,38.709 73.859,30.162 C80.298,21.615 88.422,20.053 92.16,19.402 C95.496,18.807 97.698,18.883 98.011,18.883 L98.011,18.883 Z M105.484,31.093 C106.123,32.705 106.759,35.801 106.804,39.91 C106.881,47.098 106.891,55.586 106.735,57.355 C106.436,60.763 105.246,65.678 102.359,68.105 C99.471,70.533 95.96,69.525 93.766,66.23 C91.575,62.933 90.81,59.823 90.968,50.497 C91.127,41.172 90.637,34.714 92.388,30.895 C94.138,27.078 95.949,25.488 97.617,25.175 C101.14,24.471 103.801,26.84 105.484,31.093 L105.484,31.093 Z" id="Fill-4" fill="#DB322A"></path>
            <path d="M98.011,18.883 C98.011,18.883 105.265,18.464 111.102,20.757 C116.938,23.051 121.315,25.643 125.379,32.623 C129.441,39.605 129.914,49.743 127.047,57.977 C124.18,66.206 118.398,70.26 114.542,72.342 C110.685,74.429 104.641,75.509 98.7,75.509 C92.759,75.509 85.155,74.205 80.048,70.139 C74.94,66.076 71.501,61.608 69.939,55.566 C68.376,49.519 67.418,38.709 73.859,30.162 C80.298,21.615 88.422,20.053 92.16,19.402 C95.496,18.807 97.698,18.883 98.011,18.883 L98.011,18.883 Z M105.484,31.093 C106.123,32.705 106.759,35.801 106.804,39.91 C106.881,47.098 106.891,55.586 106.735,57.355 C106.436,60.763 105.246,65.678 102.359,68.105 C99.471,70.533 95.96,69.525 93.766,66.23 C91.575,62.933 90.81,59.823 90.968,50.497 C91.127,41.172 90.637,34.714 92.388,30.895 C94.138,27.078 95.949,25.488 97.617,25.175 C101.14,24.471 103.801,26.84 105.484,31.093 L105.484,31.093 Z" id="Stroke-5" stroke="#DA332B" stroke-width="0.216"></path>
            <path d="M155.826,35.519 L155.826,73.636 L134.938,73.623 L134.938,20.643 L155.927,20.643 L155.927,27.774 C155.956,27.805 158.705,23.613 162.945,21.588 C167.186,19.562 174.525,17.666 182.011,20.847 C189.494,24.028 190.724,30.727 190.874,33.277 L190.907,73.623 L170.292,73.623 L170.292,36.742 C170.294,35.469 170.294,33.192 168.617,31.177 C167.438,29.755 164.041,28.896 161.188,30.424 C158.336,31.953 155.419,35.11 155.826,35.519" id="Fill-6" fill="#DB322A"></path>
            <path d="M155.826,35.519 L155.826,73.636 L134.938,73.623 L134.938,20.643 L155.927,20.643 L155.927,27.774 C155.956,27.805 158.705,23.613 162.945,21.588 C167.186,19.562 174.525,17.666 182.011,20.847 C189.494,24.028 190.724,30.727 190.874,33.277 L190.907,73.623 L170.292,73.623 L170.292,36.742 C170.294,35.469 170.294,33.192 168.617,31.177 C167.438,29.755 164.041,28.896 161.188,30.424 C158.336,31.953 155.419,35.11 155.826,35.519 L155.826,35.519 Z" id="Stroke-7" stroke="#DA332B" stroke-width="0.216"></path>
            <path d="M219.076,43.316 C219.076,43.316 218.942,36.405 219.536,33.09 C220.129,29.776 221.969,27.061 223.602,25.877 C225.574,24.454 229.556,24.244 231.736,26.466 C233.915,28.688 234.376,30.531 234.669,31.496 C234.962,32.461 235.55,35.563 235.507,38.537 C235.466,41.515 235.466,43.191 235.507,43.316 L219.076,43.316 L219.076,43.316 Z M200.472,33.247 C204.625,24.882 215.229,18.205 228.288,18.868 C241.341,19.531 248.848,24.294 253.45,33.06 C257.396,40.558 256.827,50.381 256.762,50.381 L219.109,50.278 L219.109,61.063 C219.109,61.063 219.487,63.238 220.339,64.372 C221.19,65.507 224.604,69.911 234.813,68.292 C246.14,66.504 245.822,58.452 246.052,58.452 L255.006,58.412 C255.006,58.412 254.899,63.767 251.182,67.305 C247.461,70.847 240.87,74.498 233.491,75.253 C226.11,76.009 215.673,76.222 207.252,69.207 C202.324,65.105 200.104,60.656 198.653,56.559 C196.857,51.492 196.319,41.614 200.472,33.247 L200.472,33.247 Z" id="Fill-8" fill="#DB322A"></path>
            <path d="M219.076,43.316 C219.076,43.316 218.942,36.405 219.536,33.09 C220.129,29.776 221.969,27.061 223.602,25.877 C225.574,24.454 229.556,24.244 231.736,26.466 C233.915,28.688 234.376,30.531 234.669,31.496 C234.962,32.461 235.55,35.563 235.507,38.537 C235.466,41.515 235.466,43.191 235.507,43.316 L219.076,43.316 L219.076,43.316 Z M200.472,33.247 C204.625,24.882 215.229,18.205 228.288,18.868 C241.341,19.531 248.848,24.294 253.45,33.06 C257.396,40.558 256.827,50.381 256.762,50.381 L219.109,50.278 L219.109,61.063 C219.109,61.063 219.487,63.238 220.339,64.372 C221.19,65.507 224.604,69.911 234.813,68.292 C246.14,66.504 245.822,58.452 246.052,58.452 L255.006,58.412 C255.006,58.412 254.899,63.767 251.182,67.305 C247.461,70.847 240.87,74.498 233.491,75.253 C226.11,76.009 215.673,76.222 207.252,69.207 C202.324,65.105 200.104,60.656 198.653,56.559 C196.857,51.492 196.319,41.614 200.472,33.247 L200.472,33.247 Z" id="Stroke-9" stroke="#DA332B" stroke-width="0.216"></path>
            <path d="M409.083,43.316 C409.083,43.316 408.952,36.405 409.546,33.09 C410.139,29.776 411.977,27.061 413.612,25.877 C415.58,24.454 419.563,24.244 421.744,26.466 C423.924,28.688 424.387,30.531 424.68,31.496 C424.973,32.461 425.558,35.563 425.518,38.537 C425.478,41.515 425.478,43.191 425.518,43.316 L409.083,43.316 L409.083,43.316 Z M390.484,33.247 C394.632,24.882 405.243,18.205 418.295,18.868 C431.347,19.531 438.854,24.294 443.465,33.06 C447.4,40.558 446.79,50.381 446.718,50.381 L409.123,50.278 L409.123,61.063 C409.123,61.063 409.498,63.238 410.352,64.372 C411.197,65.507 414.612,69.911 424.826,68.292 C436.146,66.499 435.836,58.404 436.064,58.404 L445.018,58.412 C445.018,58.412 444.912,63.767 441.188,67.305 C437.471,70.847 430.876,74.498 423.501,75.253 C416.117,76.009 405.684,76.222 397.259,69.207 C392.331,65.105 390.11,60.656 388.663,56.559 C386.866,51.492 386.329,41.614 390.484,33.247 L390.484,33.247 Z" id="Fill-10" fill="#DB322A"></path>
            <path d="M409.083,43.316 C409.083,43.316 408.952,36.405 409.546,33.09 C410.139,29.776 411.977,27.061 413.612,25.877 C415.58,24.454 419.563,24.244 421.744,26.466 C423.924,28.688 424.387,30.531 424.68,31.496 C424.973,32.461 425.558,35.563 425.518,38.537 C425.478,41.515 425.478,43.191 425.518,43.316 L409.083,43.316 L409.083,43.316 Z M390.484,33.247 C394.632,24.882 405.243,18.205 418.295,18.868 C431.347,19.531 438.854,24.294 443.465,33.06 C447.4,40.558 446.79,50.381 446.718,50.381 L409.123,50.278 L409.123,61.063 C409.123,61.063 409.498,63.238 410.352,64.372 C411.197,65.507 414.612,69.911 424.826,68.292 C436.146,66.499 435.836,58.404 436.064,58.404 L445.018,58.412 C445.018,58.412 444.912,63.767 441.188,67.305 C437.471,70.847 430.876,74.498 423.501,75.253 C416.117,76.009 405.684,76.222 397.259,69.207 C392.331,65.105 390.11,60.656 388.663,56.559 C386.866,51.492 386.329,41.614 390.484,33.247 L390.484,33.247 Z" id="Stroke-11" stroke="#DA332B" stroke-width="0.216"></path>
            <g id="Group-15" transform="translate(250.000000, 20.000000)">
                <path d="M4.94,0.659 L27.693,0.659 L37.42,25.846 L47.805,0.659 L76.445,0.732 L85.65,30.412 L93.759,0.659 L112.022,0.659 L121.009,29.972 L129.034,0.659 L138.46,0.659 L123.879,53.684 L106.721,53.684 L97.142,22.754 L88.676,53.684 L71.069,53.684 L55.384,2.501 L33.362,56.481 C33.362,56.481 30.198,65.321 26.295,68.781 C22.392,72.246 18.123,74.823 11.048,73.57 C3.98,72.318 1.182,68.635 0.665,64.292 C0.148,59.945 2.358,55.379 7.372,54.421 C12.373,53.464 15.618,55.379 16.797,57.807 C17.977,60.239 18.195,62.968 17.528,64.511 C16.87,66.058 15.764,67.016 15.764,67.016 C15.764,67.016 18.562,67.752 21.14,65.028 C23.717,62.304 25.188,58.474 25.629,56.924 C26.075,55.379 26.075,54.862 26.075,54.862 L4.94,0.659" id="Fill-12" fill="#DB322A"></path>
                <path d="M4.94,0.659 L27.693,0.659 L37.42,25.846 L47.805,0.659 L76.445,0.732 L85.65,30.412 L93.759,0.659 L112.022,0.659 L121.009,29.972 L129.034,0.659 L138.46,0.659 L123.879,53.684 L106.721,53.684 L97.142,22.754 L88.676,53.684 L71.069,53.684 L55.384,2.501 L33.362,56.481 C33.362,56.481 30.198,65.321 26.295,68.781 C22.392,72.246 18.123,74.823 11.048,73.57 C3.98,72.318 1.182,68.635 0.665,64.292 C0.148,59.945 2.358,55.379 7.372,54.421 C12.373,53.464 15.618,55.379 16.797,57.807 C17.977,60.239 18.195,62.968 17.528,64.511 C16.87,66.058 15.764,67.016 15.764,67.016 C15.764,67.016 18.562,67.752 21.14,65.028 C23.717,62.304 25.188,58.474 25.629,56.924 C26.075,55.379 26.075,54.862 26.075,54.862 L4.94,0.659 L4.94,0.659 Z" id="Stroke-14" stroke="#DA332B" stroke-width="0.216"></path>
            </g>
            <polygon id="Fill-16" fill="#DB322A" points="452.979 73.717 473.031 73.717 473.031 0.864 452.979 0.864"></polygon>
            <polygon id="Stroke-17" stroke="#DA332B" stroke-width="0.216" points="452.979 73.717 473.031 73.717 473.031 0.864 452.979 0.864"></polygon>
            <polygon id="Fill-19" fill="#DB322A" points="479.294 73.799 499.348 73.799 499.348 0.947 479.294 0.947"></polygon>
            <polygon id="Stroke-20" stroke="#DA332B" stroke-width="0.216" points="479.294 73.799 499.348 73.799 499.348 0.947 479.294 0.947"></polygon>
        </g>
    </g>
</svg>