<?xml version="1.0" encoding="utf-8"?>
<!-- Generator: Adobe Illustrator 16.0.0, SVG Export Plug-In . SVG Version: 6.00 Build 0)  -->
<!DOCTYPE svg PUBLIC "-//W3C//DTD SVG 1.1//EN" "http://www.w3.org/Graphics/SVG/1.1/DTD/svg11.dtd">
<svg version="1.1" id="Layer_1" xmlns="http://www.w3.org/2000/svg" xmlns:xlink="http://www.w3.org/1999/xlink" x="0px" y="0px"
	 width="1413.189px" height="176.367px" viewBox="0 0 1413.189 176.367" enable-background="new 0 0 1413.189 176.367"
	 xml:space="preserve">
<g>
	<path fill="#333333" d="M203.326,147.646c0-20.409-11.338-35.021-36.029-35.021H30.738V161c0,9.825-5.542,15.367-15.368,15.367
		C5.291,176.367,0,170.825,0,161V15.369C0,5.543,5.291,0,15.37,0h166.541c34.769,0,52.153,22.676,52.153,51.398
		c0,21.416-9.574,39.305-28.471,47.367c18.645,7.308,28.471,24.693,28.471,44.848V161c0,9.825-5.543,15.367-15.368,15.367
		c-10.079,0-15.37-5.542-15.37-15.367V147.646z M30.738,27.464V85.16h143.11c19.651,0,29.226-12.598,29.226-28.723
		c0-16.376-9.574-28.974-29.226-28.974H30.738z"/>
	<path fill="#333333" d="M507.178,88.185c0,49.13-29.479,88.183-89.191,88.183h-66.516c-59.712,0-89.19-39.053-89.19-88.183
		C262.28,38.801,291.759,0,351.471,0h66.516C477.699,0,507.178,38.801,507.178,88.185z M414.963,27.464h-60.216
		c-41.32,0-61.729,26.707-61.729,60.721s20.408,60.72,61.729,60.72h60.216c41.069,0,61.478-26.706,61.478-60.72
		S456.032,27.464,414.963,27.464z"/>
	<path fill="#333333" d="M554.795,176.367c-10.079,0-15.37-5.542-15.37-15.367V77.854C539.425,34.266,565.376,0,617.782,0h22.173
		c32.25,0,53.666,13.103,65.254,33.511C716.799,13.103,737.964,0,770.214,0h22.172c52.406,0,78.357,34.266,78.357,77.854V161
		c0,9.825-5.292,15.367-15.369,15.367c-9.826,0-15.117-5.542-15.117-15.367V78.861c0-28.974-17.385-51.397-52.154-51.397h-15.62
		c-34.771,0-51.902,22.424-51.902,51.397V161c0,9.825-5.545,15.367-15.371,15.367c-10.077,0-15.368-5.542-15.368-15.367V78.861
		c0-28.974-17.385-51.397-51.902-51.397h-15.872c-34.519,0-51.902,22.424-51.902,51.146V161
		C570.164,170.825,564.621,176.367,554.795,176.367z"/>
	<path fill="#A163A8" d="M1110.85,122.45H936.498V161c0,9.825-5.542,15.367-15.368,15.367c-10.079,0-15.37-5.542-15.37-15.367
		V88.185C905.76,38.801,935.491,0,994.951,0h57.445c59.461,0,89.191,38.801,89.191,88.185V161c0,9.825-5.543,15.367-15.369,15.367
		c-10.078,0-15.369-5.542-15.369-15.367V122.45z M936.498,96.247h174.352v-8.062c0-34.014-20.408-60.721-61.729-60.721h-50.895
		c-41.319,0-61.729,26.707-61.729,60.721V96.247z"/>
	<path fill="#A163A8" d="M1194.494,176.367c-10.078,0-15.369-5.542-15.369-15.367V15.369c0-9.826,5.291-15.369,15.369-15.369
		h164.021c31.494,0,47.115,20.409,47.115,46.108c0,17.385-7.307,32.502-21.668,40.564c19.4,6.299,29.227,23.18,29.227,43.588
		c0,25.698-15.621,46.106-47.367,46.106H1194.494z M1209.863,27.464v47.114h141.094c15.873,0,23.936-10.078,23.936-23.683
		s-8.062-23.432-23.936-23.432H1209.863z M1209.863,101.791v47.113h148.652c15.873,0,23.684-9.826,23.684-23.432
		c0-13.604-7.811-23.682-23.684-23.682H1209.863z"/>
</g>
</svg>
