<?xml version="1.0" encoding="utf-8"?>
<!-- Generator: Adobe Illustrator 17.0.0, SVG Export Plug-In . SVG Version: 6.00 Build 0)  -->
<!DOCTYPE svg PUBLIC "-//W3C//DTD SVG 1.1//EN" "http://www.w3.org/Graphics/SVG/1.1/DTD/svg11.dtd">
<svg version="1.1" id="Layer_1" xmlns="http://www.w3.org/2000/svg" xmlns:xlink="http://www.w3.org/1999/xlink" x="0px" y="0px"
	 width="1504.933px" height="179.828px" viewBox="0 0 1504.933 179.828" enable-background="new 0 0 1504.933 179.828"
	 xml:space="preserve">
<g>
	<path fill="#3A3A3A" d="M1,51.895C1,22.865,18.212,0,53.407,0h158.504c8.993,0,14.131,4.881,14.131,13.873
		c0,8.992-5.138,14.129-14.131,14.129H56.745c-16.184,0-24.404,10.019-24.404,23.892c0,13.872,8.221,24.148,24.404,24.148h122.798
		c35.195,0,52.409,22.863,52.409,51.893c0,29.029-17.214,51.893-52.409,51.893H15.128C5.881,179.828,1,174.947,1,165.957
		c0-8.992,4.881-14.131,14.128-14.131h161.076c16.185,0,24.405-10.017,24.405-23.891c0-13.873-8.221-24.148-24.405-24.148H53.407
		C18.212,103.787,1,80.924,1,51.895z"/>
	<path fill="#3A3A3A" d="M464.96,15.672C464.96,5.652,470.355,0,480.631,0c10.277,0,15.672,5.652,15.672,15.672v22.607
		c0,45.213-26.974,80.922-81.693,80.922h-22.864v44.957c0,10.02-5.395,15.67-15.671,15.67c-10.018,0-15.413-5.65-15.413-15.67
		v-44.957h-22.865c-54.717,0-81.692-35.709-81.692-80.922V15.672C256.103,5.652,261.498,0,271.774,0
		c10.018,0,15.413,5.652,15.413,15.672V37.25c0,30.314,18.24,53.949,54.977,53.949h68.078c36.735,0,54.718-23.635,54.718-53.949
		V15.672z"/>
	<path fill="#3A3A3A" d="M520.453,51.895C520.453,22.865,537.666,0,572.858,0h158.507c8.992,0,14.13,4.881,14.13,13.873
		c0,8.992-5.138,14.129-14.13,14.129H576.199c-16.184,0-24.404,10.019-24.404,23.892c0,13.872,8.221,24.148,24.404,24.148h122.796
		c35.195,0,52.409,22.863,52.409,51.893c0,29.029-17.214,51.893-52.409,51.893H534.582c-9.248,0-14.129-4.881-14.129-13.871
		c0-8.992,4.881-14.131,14.129-14.131h161.074c16.184,0,24.405-10.017,24.405-23.891c0-13.873-8.221-24.148-24.405-24.148H572.858
		C537.666,103.787,520.453,80.924,520.453,51.895z"/>
	<path fill="#89AA66" d="M813.061,89.914c0,34.682,20.81,61.912,62.942,61.912h118.686c9.248,0,14.129,4.881,14.129,14.131
		c0,8.734-4.881,13.871-14.129,13.871H872.663c-60.885,0-90.94-39.818-90.94-89.914C781.723,39.562,811.778,0,872.663,0h122.026
		c9.248,0,14.129,4.881,14.129,13.873c0,8.992-4.881,14.129-14.129,14.129H876.004C833.871,28.002,813.061,55.234,813.061,89.914z"
		/>
	<path fill="#89AA66" d="M1161.676,28.002v136.156c0,10.02-5.395,15.67-15.672,15.67c-10.018,0-15.412-5.65-15.412-15.67V28.002
		h-90.429c-9.25,0-14.13-5.137-14.13-14.129c0-8.992,4.88-13.873,14.13-13.873h211.94c9.248,0,14.129,4.881,14.129,13.873
		c0,8.992-4.881,14.129-14.129,14.129H1161.676z"/>
	<path fill="#89AA66" d="M1288.584,89.914V15.672c0-10.02,5.396-15.672,15.672-15.672c10.019,0,15.669,5.652,15.669,15.672v74.242
		c0,34.682,20.81,61.912,62.94,61.912h105.071c8.992,0,14.129,4.881,14.129,14.131c0,8.734-5.137,13.871-14.129,13.871h-108.411
		C1318.898,179.828,1288.584,140.267,1288.584,89.914z"/>
</g>
</svg>
