<?xml version="1.0" encoding="UTF-8"?>
<svg width="13px" height="10px" viewBox="0 0 13 10" version="1.1" xmlns="http://www.w3.org/2000/svg" xmlns:xlink="http://www.w3.org/1999/xlink">
    <!-- Generator: Sketch 43.1 (39012) - http://www.bohemiancoding.com/sketch -->
    <title>twitter</title>
    <desc>Created with Sketch.</desc>
    <defs></defs>
    <g id="Symbols" stroke="none" stroke-width="1" fill="none" fill-rule="evenodd">
        <g id="meta-bar" transform="translate(-139.000000, -15.000000)" fill-rule="nonzero" fill="#030100">
            <g id="meta-top-bar">
                <g id="twitter" transform="translate(139.000000, 15.000000)">
                    <path d="M12.3125,1.1875 C11.9635417,1.69791667 11.5416667,2.1328125 11.046875,2.4921875 C11.0520833,2.56510417 11.0546875,2.67447917 11.0546875,2.8203125 C11.0546875,3.49739583 10.9557292,4.17317708 10.7578125,4.84765625 C10.5598958,5.52213542 10.2591146,6.16927083 9.85546875,6.7890625 C9.45182292,7.40885417 8.97135417,7.95703125 8.4140625,8.43359375 C7.85677083,8.91015625 7.18489583,9.29036458 6.3984375,9.57421875 C5.61197917,9.85807292 4.77083333,10 3.875,10 C2.46354167,10 1.171875,9.62239583 0,8.8671875 C0.182291667,8.88802083 0.385416667,8.8984375 0.609375,8.8984375 C1.78125,8.8984375 2.82552083,8.5390625 3.7421875,7.8203125 C3.1953125,7.80989583 2.70572917,7.64192708 2.2734375,7.31640625 C1.84114583,6.99088542 1.54427083,6.57552083 1.3828125,6.0703125 C1.5546875,6.09635417 1.71354167,6.109375 1.859375,6.109375 C2.08333333,6.109375 2.3046875,6.08072917 2.5234375,6.0234375 C1.94010417,5.90364583 1.45703125,5.61328125 1.07421875,5.15234375 C0.69140625,4.69140625 0.5,4.15625 0.5,3.546875 L0.5,3.515625 C0.854166667,3.71354167 1.234375,3.8203125 1.640625,3.8359375 C1.296875,3.60677083 1.0234375,3.30729167 0.8203125,2.9375 C0.6171875,2.56770833 0.515625,2.16666667 0.515625,1.734375 C0.515625,1.27604167 0.630208333,0.8515625 0.859375,0.4609375 C1.48958333,1.23697917 2.25651042,1.85807292 3.16015625,2.32421875 C4.06380208,2.79036458 5.03125,3.04947917 6.0625,3.1015625 C6.02083333,2.90364583 6,2.7109375 6,2.5234375 C6,1.82552083 6.24609375,1.23046875 6.73828125,0.73828125 C7.23046875,0.24609375 7.82552083,0 8.5234375,0 C9.25260417,0 9.8671875,0.265625 10.3671875,0.796875 C10.9348958,0.6875 11.46875,0.484375 11.96875,0.1875 C11.7760417,0.786458333 11.40625,1.25 10.859375,1.578125 C11.34375,1.52604167 11.828125,1.39583333 12.3125,1.1875 Z" id="Shape"></path>
                </g>
            </g>
        </g>
    </g>
</svg>