<?xml version="1.0" encoding="utf-8"?>
<!-- Generator: Adobe Illustrator 17.0.0, SVG Export Plug-In . SVG Version: 6.00 Build 0)  -->
<!DOCTYPE svg PUBLIC "-//W3C//DTD SVG 1.1//EN" "http://www.w3.org/Graphics/SVG/1.1/DTD/svg11.dtd">
<svg version="1.1" id="Layer_1" xmlns="http://www.w3.org/2000/svg" xmlns:xlink="http://www.w3.org/1999/xlink" x="0px" y="0px"
	 width="186.75px" height="98.75px" viewBox="0 0 186.75 98.75" enable-background="new 0 0 186.75 98.75" xml:space="preserve">
<g>
	<g>
		<path fill-rule="evenodd" clip-rule="evenodd" stroke="#000000" stroke-width="0.1" stroke-miterlimit="3.8637" d="
			M156.709,85.146c-0.124,1.324-0.487,2.547-1.101,3.655c-6.821,12.305-42.107,5.786-78.814-14.562
			C40.086,53.893,15.86,27.424,22.681,15.119c5.143-9.277,26.462-8.191,52.373,1.79C38.865-0.184,7.372-5.261,1.105,6.044
			c-7.207,13,21.59,42.738,64.319,66.423c42.73,23.685,83.209,32.347,90.416,19.348C156.814,90.056,156.997,87.46,156.709,85.146z"
			/>
	</g>
	<g>
		<g>
			<polygon fill-rule="evenodd" clip-rule="evenodd" points="174.626,69.229 175.065,69.229 175.065,66.125 175.863,66.125 
				175.863,65.746 173.827,65.746 173.827,66.125 174.626,66.125 			"/>
			<polygon fill-rule="evenodd" clip-rule="evenodd" points="176.341,69.229 176.76,69.229 176.76,66.225 176.77,66.225 
				177.718,69.229 178.038,69.229 179.025,66.225 179.036,66.225 179.036,69.229 179.455,69.229 179.455,65.746 178.796,65.746 
				177.903,68.515 177.893,68.515 177.02,65.746 176.341,65.746 			"/>
		</g>
	</g>
	<g>
		<rect x="37.504" y="74.673" fill-rule="evenodd" clip-rule="evenodd" fill="#FB8B00" width="1.915" height="6.772"/>
		<path fill-rule="evenodd" clip-rule="evenodd" fill="#FB8B00" d="M48.163,81.445v-3.105c0-1.335-0.493-2.08-1.635-2.08
			c-0.697,0-1.113,0.271-1.48,0.571c-0.319-0.348-0.706-0.571-1.403-0.571c-0.551,0-0.929,0.213-1.209,0.445v-0.339h-1.741v5.079
			h1.741v-2.902c0-0.638,0.203-0.812,0.561-0.812c0.349,0,0.561,0.174,0.561,0.832v2.883h1.742v-2.902
			c0-0.638,0.203-0.812,0.561-0.812c0.348,0,0.551,0.174,0.551,0.832v2.883H48.163z"/>
		<path fill-rule="evenodd" clip-rule="evenodd" fill="#FB8B00" d="M53.842,78.891c0-1.886-0.735-2.631-1.693-2.631
			c-0.532,0-0.852,0.194-1.2,0.464v-0.358h-1.741v6.946l1.741-0.696v-1.509c0.28,0.213,0.629,0.445,1.132,0.445
			C53.194,81.551,53.842,80.71,53.842,78.891z M52.12,78.949c0,0.948-0.184,1.17-0.542,1.17c-0.271,0-0.445-0.097-0.629-0.242
			v-1.944c0.184-0.145,0.368-0.242,0.619-0.242C51.937,77.691,52.12,77.933,52.12,78.949z"/>
		<path fill-rule="evenodd" clip-rule="evenodd" fill="#FB8B00" d="M58.388,76.472c-0.203-0.126-0.455-0.213-0.823-0.213
			c-0.445,0-0.783,0.184-1.083,0.474v-0.368h-1.741v5.079h1.741v-2.767c0-0.619,0.261-0.822,0.687-0.822
			c0.339,0,0.59,0.184,0.812,0.426L58.388,76.472z"/>
		<path fill-rule="evenodd" clip-rule="evenodd" fill="#FB8B00" d="M63.554,78.9c0-1.77-1.016-2.641-2.418-2.641
			c-1.403,0-2.409,0.871-2.409,2.641c0,1.751,1.006,2.651,2.409,2.651C62.538,81.551,63.554,80.651,63.554,78.9z M61.822,78.9
			c0,0.842-0.232,1.238-0.687,1.238c-0.455,0-0.687-0.396-0.687-1.238c0-0.861,0.232-1.229,0.687-1.229
			C61.59,77.672,61.822,78.04,61.822,78.9z"/>
		<path fill-rule="evenodd" clip-rule="evenodd" fill="#FB8B00" d="M69.088,76.366h-1.838l-0.464,1.867
			c-0.106,0.426-0.251,1.035-0.319,1.519c-0.058-0.484-0.204-1.093-0.31-1.519l-0.455-1.867h-1.848l1.761,5.079h1.712L69.088,76.366
			z"/>
		<path fill-rule="evenodd" clip-rule="evenodd" fill="#FB8B00" d="M71.708,75.137c0-0.494-0.416-0.842-1.016-0.842
			c-0.571,0-0.997,0.348-0.997,0.842c0,0.532,0.426,0.861,0.997,0.861C71.292,75.998,71.708,75.669,71.708,75.137z M71.563,81.445
			v-5.079h-1.741v5.079H71.563z"/>
		<path fill-rule="evenodd" clip-rule="evenodd" fill="#FB8B00" d="M77.356,81.445v-3.105c0-1.335-0.532-2.08-1.645-2.08
			c-0.6,0-0.957,0.203-1.277,0.445v-0.339h-1.741v5.079h1.741v-2.902c0-0.638,0.223-0.812,0.59-0.812c0.358,0,0.58,0.174,0.58,0.832
			v2.883H77.356z"/>
		<path fill-rule="evenodd" clip-rule="evenodd" fill="#FB8B00" d="M82.851,80.681v-4.315H81.1v0.339
			c-0.281-0.213-0.619-0.445-1.132-0.445c-1.103,0-1.751,0.842-1.751,2.661c0,1.886,0.735,2.583,1.683,2.583
			c0.532,0,0.861-0.194,1.2-0.464v0.174c0,0.697-0.3,0.89-1.538,1.093l0.638,1.006C82.038,83.051,82.851,82.422,82.851,80.681z
			 M81.1,79.878c-0.174,0.145-0.358,0.242-0.609,0.242c-0.368,0-0.561-0.242-0.561-1.257c0-0.948,0.193-1.171,0.551-1.171
			c0.271,0,0.445,0.097,0.619,0.242V79.878z"/>
		<path fill-rule="evenodd" clip-rule="evenodd" fill="#FB8B00" d="M92.657,79.365c0-1.267-0.754-1.79-2.457-2.196
			c-0.871-0.203-1.113-0.319-1.113-0.571c0-0.242,0.136-0.416,0.697-0.416c0.687,0,1.287,0.232,1.886,0.638l0.91-1.47
			c-0.716-0.503-1.548-0.784-2.699-0.784c-1.635,0-2.67,0.861-2.67,2.138c0,1.354,0.784,1.799,2.418,2.176
			c0.909,0.213,1.151,0.368,1.151,0.619c0,0.319-0.213,0.436-0.88,0.436c-0.629,0-1.49-0.338-1.983-0.677l-0.909,1.471
			c0.706,0.464,1.761,0.822,2.854,0.822C91.487,81.551,92.657,80.913,92.657,79.365z"/>
		<path fill-rule="evenodd" clip-rule="evenodd" fill="#FB8B00" d="M97.979,79.065c0-1.886-0.871-2.806-2.264-2.806
			c-1.335,0-2.322,0.9-2.322,2.651c0,1.558,0.841,2.641,2.37,2.641c0.793,0,1.441-0.213,2.07-0.581l-0.668-1.112
			c-0.503,0.261-0.871,0.357-1.315,0.357c-0.474,0-0.803-0.252-0.861-0.812h2.979C97.979,79.317,97.979,79.21,97.979,79.065z
			 M96.441,78.32h-1.451c0.058-0.503,0.28-0.774,0.677-0.774C96.179,77.546,96.353,77.807,96.441,78.32z"/>
		<path fill-rule="evenodd" clip-rule="evenodd" fill="#FB8B00" d="M103.077,80.342l-1.103-0.861
			c-0.319,0.474-0.551,0.658-0.88,0.658c-0.474,0-0.716-0.416-0.716-1.219c0-0.803,0.223-1.248,0.667-1.248
			c0.377,0,0.542,0.213,0.784,0.658l1.2-0.909c-0.445-0.716-0.997-1.161-1.954-1.161c-1.626,0-2.419,1.074-2.419,2.631
			c0,1.712,0.89,2.661,2.38,2.661C101.936,81.551,102.487,81.213,103.077,80.342z"/>
		<path fill-rule="evenodd" clip-rule="evenodd" fill="#FB8B00" d="M108.464,81.445v-5.079h-1.751v2.902
			c0,0.639-0.223,0.812-0.58,0.812c-0.358,0-0.581-0.174-0.581-0.832v-2.883h-1.751v3.105c0,1.335,0.532,2.08,1.645,2.08
			c0.59,0,0.958-0.203,1.267-0.445v0.339H108.464z"/>
		<path fill-rule="evenodd" clip-rule="evenodd" fill="#FB8B00" d="M113.194,76.472c-0.203-0.126-0.455-0.213-0.822-0.213
			c-0.445,0-0.783,0.184-1.084,0.474v-0.368h-1.741v5.079h1.741v-2.767c0-0.619,0.261-0.822,0.687-0.822
			c0.339,0,0.59,0.184,0.812,0.426L113.194,76.472z"/>
		<path fill-rule="evenodd" clip-rule="evenodd" fill="#FB8B00" d="M115.816,75.137c0-0.494-0.416-0.842-1.016-0.842
			c-0.571,0-0.996,0.348-0.996,0.842c0,0.532,0.426,0.861,0.996,0.861C115.4,75.998,115.816,75.669,115.816,75.137z M115.671,81.445
			v-5.079h-1.742v5.079H115.671z"/>
		<path fill-rule="evenodd" clip-rule="evenodd" fill="#FB8B00" d="M120.138,79.8c-0.271,0.184-0.464,0.271-0.696,0.271
			c-0.29,0-0.435-0.116-0.435-0.503V77.73h1.103v-1.364h-1.103v-1.973l-1.693,0.687v1.287h-0.774v1.364h0.774v2.206
			c0,1.151,0.426,1.616,1.345,1.616c0.494,0,0.919-0.106,1.258-0.271L120.138,79.8z"/>
		<path fill-rule="evenodd" clip-rule="evenodd" fill="#FB8B00" d="M125.972,76.366h-1.829l-0.474,1.79
			c-0.116,0.445-0.329,1.344-0.396,1.828c-0.058-0.484-0.271-1.383-0.387-1.809l-0.484-1.809h-1.848l1.935,5.292l-0.638,1.577h1.664
			L125.972,76.366z"/>
		<polygon fill-rule="evenodd" clip-rule="evenodd" fill="#FB8B00" points="135.382,76.308 135.382,74.673 129.713,74.673 
			129.713,76.308 131.609,76.308 131.609,81.445 133.486,81.445 133.486,76.308 		"/>
		<path fill-rule="evenodd" clip-rule="evenodd" fill="#FB8B00" d="M139.843,78.9c0-1.77-1.016-2.641-2.418-2.641
			c-1.403,0-2.409,0.871-2.409,2.641c0,1.751,1.006,2.651,2.409,2.651C138.827,81.551,139.843,80.651,139.843,78.9z M138.111,78.9
			c0,0.842-0.232,1.238-0.686,1.238c-0.455,0-0.687-0.396-0.687-1.238c0-0.861,0.232-1.229,0.687-1.229
			C137.879,77.672,138.111,78.04,138.111,78.9z"/>
		<path fill-rule="evenodd" clip-rule="evenodd" fill="#FB8B00" d="M145.173,80.681v-4.315h-1.751v0.339
			c-0.281-0.213-0.619-0.445-1.132-0.445c-1.103,0-1.751,0.842-1.751,2.661c0,1.886,0.735,2.583,1.683,2.583
			c0.532,0,0.861-0.194,1.2-0.464v0.174c0,0.697-0.3,0.89-1.538,1.093l0.638,1.006C144.36,83.051,145.173,82.422,145.173,80.681z
			 M143.422,79.878c-0.174,0.145-0.358,0.242-0.609,0.242c-0.368,0-0.561-0.242-0.561-1.257c0-0.948,0.193-1.171,0.551-1.171
			c0.271,0,0.445,0.097,0.619,0.242V79.878z"/>
		<path fill-rule="evenodd" clip-rule="evenodd" fill="#FB8B00" d="M150.638,79.065c0-1.886-0.871-2.806-2.264-2.806
			c-1.335,0-2.322,0.9-2.322,2.651c0,1.558,0.842,2.641,2.37,2.641c0.793,0,1.441-0.213,2.07-0.581l-0.667-1.112
			c-0.503,0.261-0.871,0.357-1.316,0.357c-0.474,0-0.803-0.252-0.861-0.812h2.979C150.638,79.317,150.638,79.21,150.638,79.065z
			 M149.1,78.32h-1.451c0.058-0.503,0.28-0.774,0.677-0.774C148.838,77.546,149.012,77.807,149.1,78.32z"/>
		<path fill-rule="evenodd" clip-rule="evenodd" fill="#FB8B00" d="M154.779,79.8c-0.271,0.184-0.464,0.271-0.697,0.271
			c-0.29,0-0.435-0.116-0.435-0.503V77.73h1.103v-1.364h-1.103v-1.973l-1.693,0.687v1.287h-0.774v1.364h0.774v2.206
			c0,1.151,0.425,1.616,1.345,1.616c0.493,0,0.919-0.106,1.257-0.271L154.779,79.8z"/>
		<path fill-rule="evenodd" clip-rule="evenodd" fill="#FB8B00" d="M160.457,81.445v-3.105c0-1.335-0.532-2.08-1.645-2.08
			c-0.6,0-0.958,0.203-1.277,0.445v-2.312l-1.741,0.697v6.356h1.741v-2.902c0-0.638,0.222-0.812,0.59-0.812
			c0.358,0,0.581,0.174,0.581,0.832v2.883H160.457z"/>
		<path fill-rule="evenodd" clip-rule="evenodd" fill="#FB8B00" d="M165.884,79.065c0-1.886-0.871-2.806-2.264-2.806
			c-1.335,0-2.322,0.9-2.322,2.651c0,1.558,0.842,2.641,2.37,2.641c0.794,0,1.441-0.213,2.07-0.581l-0.668-1.112
			c-0.503,0.261-0.871,0.357-1.315,0.357c-0.474,0-0.803-0.252-0.861-0.812h2.98C165.884,79.317,165.884,79.21,165.884,79.065z
			 M164.346,78.32h-1.451c0.058-0.503,0.281-0.774,0.677-0.774C164.085,77.546,164.259,77.807,164.346,78.32z"/>
		<path fill-rule="evenodd" clip-rule="evenodd" fill="#FB8B00" d="M170.412,76.472c-0.203-0.126-0.455-0.213-0.822-0.213
			c-0.445,0-0.784,0.184-1.083,0.474v-0.368h-1.742v5.079h1.742v-2.767c0-0.619,0.261-0.822,0.686-0.822
			c0.339,0,0.59,0.184,0.813,0.426L170.412,76.472z"/>
	</g>
	<g>
		<polygon fill-rule="evenodd" clip-rule="evenodd" fill="#FB8B00" points="74.613,22.209 87.297,22.209 85.724,31.976 
			73.088,31.976 		"/>
		<polygon fill-rule="evenodd" clip-rule="evenodd" fill="#289500" points="71.804,40.866 67.334,68.985 79.869,68.985 
			84.058,40.875 		"/>
		<path fill-rule="evenodd" clip-rule="evenodd" fill="#289500" d="M128.029,40.875c0.182,1.603,0.624,2.894,1.315,4.138
			c1.247,2.212,3.116,3.994,5.271,5.899c0.711,0.553,1.361,1.106,1.807,1.782c0.507,0.676,0.749,1.475,0.574,2.581
			c-0.321,2.028-2.453,3.072-4.173,3.072c-3.195,0-5.797-2.581-7.109-5.162l-2.297,14.502c2.755,1.229,5.904,1.905,9.1,1.905
			c8.726,0,15.838-6.882,17.201-15.485c0.555-3.502,0.146-5.96-0.998-8.049c-1.009-1.947-2.568-3.478-4.69-5.183H128.029z"/>
		<path fill-rule="evenodd" clip-rule="evenodd" fill="#289500" d="M151.923,31.976l1.21-7.785c-2.418-1.413-5.529-2.335-8.54-2.335
			c-7.819,0-12.556,5.18-14.892,10.12H151.923z"/>
		<polygon fill-rule="evenodd" clip-rule="evenodd" fill="#289500" points="162.43,40.875 157.931,69.082 170.466,69.082 
			174.941,40.875 		"/>
		<polygon fill-rule="evenodd" clip-rule="evenodd" fill="#289500" points="156.977,31.976 183.55,31.976 185.021,22.654 
			158.414,22.654 		"/>
		<path fill-rule="evenodd" clip-rule="evenodd" fill="#289500" d="M123.13,32.001c-1.143-7.259-7.652-9.347-16.444-9.347H94.582
			l-1.487,9.321L123.13,32.001z"/>
		<path fill-rule="evenodd" clip-rule="evenodd" fill="#289500" d="M122.27,40.875h-12.671c-1.04,1.828-2.804,3.167-5.082,3.167
			l-0.789-0.061l0.499-3.105H91.757L87.24,68.928h12.535l1.957-12.351c0.36-2.273,0.597-4.547,0.896-6.82l0.143-0.123l3.887,19.294
			h13.58l-6.283-19.294C118.227,48.045,120.951,44.764,122.27,40.875z"/>
		<polygon fill-rule="evenodd" clip-rule="evenodd" fill="#289500" points="50.307,68.985 53.121,51.227 62.092,51.227 
			63.729,40.875 54.795,40.875 56.153,31.976 65.744,31.976 67.233,22.654 45.112,22.654 37.772,68.985 		"/>
	</g>
</g>
</svg>
