<svg xmlns="http://www.w3.org/2000/svg" xmlns:xlink="http://www.w3.org/1999/xlink" width="107" height="36" viewBox="0 0 107 36" class="injected-svg" data-src="/icons/sticky-logo.svg">
    <defs>
        <path id="a" d="M0 .055h33.855v34.286H0z"></path>
        <path id="c" d="M0 35.067h106.858V.78H0z"></path>
    </defs>
    <g fill="none" fill-rule="evenodd">
        <circle cx="17" cy="18" r="15" fill="#FFF" fill-rule="nonzero"></circle>
        <g transform="translate(0 .726)">
            <mask id="b" fill="#fff">
                <use xlink:href="#a"></use>
            </mask>
            <path fill="#00ACC1" d="M24.894 11.268v13.117h-2.092V11.268h-4.714V9.407h11.519v1.861h-4.713zm-12.765 15.61c-4.543 0-7.88-3.275-7.88-7.66 0-3.508 2.136-6.298 5.312-7.278v2.077c-1.936.9-3.2 2.822-3.2 5.2 0 3.317 2.45 5.756 5.768 5.756 3.275 0 5.725-2.44 5.725-5.755 0-2.386-1.271-4.312-3.2-5.208v-2.08c3.167.97 5.313 3.755 5.313 7.288 0 4.406-3.339 7.66-7.838 7.66zm-1.078-8.154h2.112V7.518h-2.112v11.206zM16.927.055C7.578.055 0 7.73 0 17.2 0 26.667 7.578 34.34 16.927 34.34c9.35 0 16.928-7.674 16.928-17.142C33.855 7.73 26.276.055 16.927.055z" mask="url(#b)"></path>
        </g>
        <path fill="#3B3B3B" d="M50.51 17.924c0-2.47-1.79-4.248-4.195-4.248-2.404 0-4.195 1.779-4.195 4.248 0 2.47 1.79 4.248 4.195 4.248 2.405 0 4.196-1.778 4.196-4.248m-10.625 0c0-3.575 2.728-6.218 6.43-6.218 3.7 0 6.428 2.625 6.428 6.218s-2.728 6.217-6.429 6.217c-3.7 0-6.429-2.642-6.429-6.217M56.82 13.78h-3.956v-1.901h10.13v1.9h-3.956v10.19H56.82zM73.731 17.924c0-2.47-1.79-4.248-4.195-4.248-2.405 0-4.196 1.779-4.196 4.248 0 2.47 1.791 4.248 4.196 4.248 2.404 0 4.195-1.778 4.195-4.248m-10.624 0c0-3.575 2.728-6.218 6.429-6.218 3.7 0 6.429 2.625 6.429 6.218s-2.73 6.217-6.43 6.217c-3.7 0-6.428-2.642-6.428-6.217M82.594 13.78h-2.592v4.818h2.592c1.944 0 2.95-.9 2.95-2.418 0-1.52-1.006-2.4-2.95-2.4zm3.002 10.19l-2.44-3.541c-.152.016-.305.016-.459.016h-2.695v3.524h-2.216V11.88h4.911c3.137 0 5.082 1.624 5.082 4.301 0 1.831-.922 3.177-2.54 3.816l2.744 3.973h-2.387z"></path>
        <mask id="d" fill="#fff">
            <use xlink:href="#c"></use>
        </mask>
        <path fill="#3B3B3B" d="M89.75 24.09h2.216V12H89.75zM104.624 17.924c0-2.47-1.79-4.248-4.195-4.248-2.405 0-4.196 1.779-4.196 4.248 0 2.47 1.791 4.248 4.196 4.248s4.195-1.778 4.195-4.248m-10.624 0c0-3.575 2.728-6.218 6.429-6.218 3.7 0 6.428 2.625 6.428 6.218s-2.728 6.217-6.428 6.217c-3.701 0-6.43-2.642-6.43-6.217" mask="url(#d)"></path>
        <circle cx="91.067" cy="8.317" r="1.317" fill="#FF036A" fill-rule="nonzero"></circle>
    </g>
</svg>