<svg width="12" height="12" viewBox="0 0 12 12" fill="none" xmlns="http://www.w3.org/2000/svg">
<path fill-rule="evenodd" clip-rule="evenodd" d="M0 1C0 0.447715 0.447715 0 1 0H11C11.5523 0 12 0.447715 12 1C12 1.55228 11.5523 2 11 2H1C0.447715 2 0 1.55228 0 1ZM0 5.74072C0 5.18844 0.447715 4.74072 1 4.74072H11C11.5523 4.74072 12 5.18844 12 5.74072C12 6.29301 11.5523 6.74072 11 6.74072H1C0.447715 6.74072 0 6.29301 0 5.74072ZM1 10C0.447715 10 0 10.4477 0 11C0 11.5523 0.447715 12 1 12H11C11.5523 12 12 11.5523 12 11C12 10.4477 11.5523 10 11 10H1Z" fill="white"/>
</svg>
