<svg xmlns:dc="http://purl.org/dc/elements/1.1/" xmlns:cc="http://creativecommons.org/ns#" xmlns:rdf="http://www.w3.org/1999/02/22-rdf-syntax-ns#" xmlns:svg="http://www.w3.org/2000/svg" xmlns="http://www.w3.org/2000/svg" xmlns:sodipodi="http://sodipodi.sourceforge.net/DTD/sodipodi-0.dtd" xmlns:inkscape="http://www.inkscape.org/namespaces/inkscape" version="1.1" x="0px" y="0px" viewBox="0 0 100 125">
	<g transform="translate(0,-952.36218)" id="calender">
		<path style="text-indent:0;text-transform:none;direction:ltr;block-progression:tb;baseline-shift:baseline;color:#000000;enable-background:accumulate;" d="m 29.593017,958.34767 a 2.0000048,2.0000048 0 0 0 -1.78125,2.03125 l 0,5.84375 -10.625,0 c -6.13117,0 -11.1874996,5.04479 -11.1874996,11.1875 l 0,11.75001 0,0.25 a 2.0000048,2.0000048 0 0 0 0,0.1562 l 0,45.62502 c 0,6.1427 5.0536696,11.1875 11.1874996,11.1875 l 65.656249,0 c 6.13382,0 11.15625,-5.0448 11.15625,-11.1875 l 0,-45.50002 a 2.0000048,2.0000048 0 0 0 0,-0.125 2.0000048,2.0000048 0 0 0 0,-0.2187 l 0,-11.93751 c 0,-6.14271 -5.02509,-11.1875 -11.15625,-11.1875 l -10.96875,0 0,-5.84375 a 2.0000048,2.0000048 0 0 0 -2.03125,-2.03125 2.0000048,2.0000048 0 0 0 -1.96875,2.03125 l 0,5.84375 -36.062499,0 0,-5.84375 a 2.0000048,2.0000048 0 0 0 -2.03125,-2.03125 2.0000048,2.0000048 0 0 0 -0.1875,0 z m -12.40625,11.875 10.625,0 0,5.84375 a 2.0000048,2.0000048 0 1 0 4,0 l 0,-5.84375 36.062499,0 0,5.84375 a 2.0000048,2.0000048 0 1 0 4,0 l 0,-5.84375 10.96875,0 c 3.94566,0 7.15625,3.22203 7.15625,7.1875 l 0,10.15621 -79.9999986,0 0,-10.15621 c 0,-3.96547 3.2418296,-7.1875 7.1874996,-7.1875 z m -7.1874996,21.34371 79.9999986,0 0,43.62502 c 0,3.9655 -3.21325,7.1875 -7.15625,7.1875 l -65.656249,0 c -3.94301,0 -7.1874996,-3.222 -7.1874996,-7.1875 l 0,-43.62502 z" fill="#000000" fill-opacity="1" fill-rule="evenodd" stroke="none" marker="none" visibility="visible" display="inline" overflow="visible"/>
	</g>
</svg>