<?xml version="1.0" encoding="utf-8"?>
<!-- Generator: Adobe Illustrator 16.0.0, SVG Export Plug-In . SVG Version: 6.00 Build 0)  -->
<!DOCTYPE svg PUBLIC "-//W3C//DTD SVG 1.1//EN" "http://www.w3.org/Graphics/SVG/1.1/DTD/svg11.dtd">
<svg version="1.1" id="Layer_1" xmlns="http://www.w3.org/2000/svg" xmlns:xlink="http://www.w3.org/1999/xlink" x="0px" y="0px"
	 width="206.733px" height="206.744px" viewBox="0 0 206.733 206.744" enable-background="new 0 0 206.733 206.744"
	 xml:space="preserve">
<path fill-rule="evenodd" clip-rule="evenodd" fill="#2058A1" d="M206.733,206.744c-68.918,0-137.806,0-206.733,0
	C0,137.819,0,68.931,0,0c68.908,0,137.796,0,206.733,0C206.733,68.896,206.733,137.783,206.733,206.744z M45.922,137.786
	c0.009,0.058,0.019,0.115,0.028,0.173c1.984-0.319,4.006-0.492,5.946-0.986c5.688-1.449,10.211-4.665,13.513-9.509
	c3.528-5.175,4.795-10.903,3.804-17.097c-0.198-1.235-0.71-2.431-0.82-3.668c-0.148-1.661-0.156-3.354-0.029-5.017
	c0.299-3.898,1.599-7.493,3.79-10.717c3.664-5.391,7.888-10.323,12.603-14.82c3.052-2.911,6.229-5.69,9.266-8.615
	c2.643-2.546,5.862-2.023,8.438-0.209c0.982,0.692,1.639,1.741,1.884,2.92c0.632,3.042,1.264,6.09,1.726,9.161
	c0.348,2.305,0.557,4.646,0.606,6.976c0.094,4.297,0.043,8.598,0.016,12.897c-0.012,1.902-0.408,3.736-1.384,5.394
	c-1.552,2.636-3.739,4.693-6.258,6.35c-8.027,5.279-10.606,15.715-5.876,24.068c3.856,6.809,11.853,10.351,19.49,8.628
	c4.522-1.02,8.134-3.437,10.816-7.2c1.593-2.236,2.636-4.729,3.108-7.448c0.443-2.549,1.897-4.258,4.346-5.098
	c0.564-0.194,1.156-0.308,1.732-0.467c4.139-1.139,8.344-1.84,12.646-1.753c2.735,0.056,5.469,0.229,8.203,0.354
	c1.735,0.078,3.234,0.749,4.236,2.149c1.073,1.503,2.405,2.643,3.955,3.597c3.01,1.854,6.225,2.5,9.696,1.739
	c6.709-1.469,11.045-8.116,9.75-14.655c-1.021-5.151-4.114-8.504-9.122-10.02c-2.235-0.677-4.576-0.661-6.894-0.62
	c-2.007,0.034-3.586-0.739-4.843-2.286c-2.988-3.676-6.007-7.328-8.996-11.002c-2.674-3.287-5.454-6.497-7.959-9.909
	c-4.256-5.799-8.351-11.716-12.463-17.619c-0.639-0.917-1.154-1.979-1.469-3.049c-0.525-1.785-0.573-3.585,0.326-5.349
	c2.887-5.658,3.479-11.576,1.655-17.66c-3.305-11.034-14.189-18.271-26.007-16.55c-5.371,0.782-9.964,3.125-13.671,7.067
	c-4.957,5.271-7.068,11.564-6.378,18.779c0.34,3.557,1.49,6.841,3.358,9.882c0.384,0.625,0.887,1.229,1.073,1.913
	c0.451,1.657-0.074,3.143-1.104,4.479c-2.184,2.833-4.387,5.652-6.526,8.52c-3.767,5.052-7.958,9.687-12.808,13.74
	c-4.17,3.483-8.725,5.965-14.258,6.261c-0.948,0.051-1.949,0.104-2.85-0.133c-5.158-1.36-10.215-1.102-15.146,0.889
	c-10.904,4.401-16.872,16.115-14.087,27.539C25.544,130.297,35.096,137.785,45.922,137.786z M78.475,177.897
	c0.279-0.014,0.549-0.038,0.82-0.039c3.497-0.022,6.995-0.024,10.492-0.072c1.286-0.017,1.759-0.545,1.723-1.843
	c-0.074-2.688-1.389-4.659-3.648-6.012c-2.144-1.285-4.483-1.43-6.89-1.009c-2.306,0.402-4.212,1.489-5.562,3.418
	c-2.569,3.671-1.741,10.015,4.151,12.043c2.155,0.742,4.362,0.666,6.565,0.287c1.487-0.257,2.902-0.734,4.095-1.713
	c0.524-0.431,0.899-0.952,0.979-1.656c0.151-1.312-0.881-2.361-2.159-1.687c-0.422,0.224-0.876,0.387-1.304,0.601
	c-1.69,0.849-3.447,1.311-5.366,1.126C80.372,181.149,78.843,179.865,78.475,177.897z M139.8,177.856c0.285,0,0.557,0.001,0.827,0
	c3.497-0.021,6.995-0.026,10.492-0.072c1.259-0.016,1.74-0.55,1.711-1.792c-0.064-2.796-1.443-4.821-3.819-6.153
	c-2.489-1.396-5.148-1.404-7.836-0.645c-3.429,0.968-5.733,3.916-5.794,7.37c-0.064,3.715,2.037,6.683,5.512,7.831
	c1.805,0.598,3.651,0.637,5.507,0.439c1.721-0.183,3.375-0.623,4.823-1.631c0.656-0.457,1.181-1.022,1.3-1.859
	c0.094-0.656-0.074-1.234-0.592-1.669c-0.478-0.399-1.005-0.312-1.522-0.082c-0.584,0.26-1.165,0.524-1.739,0.803
	c-1.577,0.767-3.223,1.107-4.983,0.944C141.687,181.155,140.102,179.803,139.8,177.856z M119.386,177.857
	c0.288,0,0.524,0.001,0.761,0c3.537-0.021,7.075-0.028,10.612-0.074c1.209-0.016,1.694-0.559,1.676-1.771
	c-0.038-2.517-1.189-4.452-3.244-5.819c-2.631-1.751-5.509-1.815-8.452-0.987c-3.424,0.964-5.702,3.92-5.757,7.4
	c-0.059,3.674,2.056,6.647,5.493,7.782c2.107,0.695,4.249,0.658,6.393,0.32c1.547-0.245,3.024-0.734,4.272-1.748
	c0.55-0.446,0.936-1.002,1.001-1.713c0.114-1.233-0.846-2.257-2.117-1.668c-0.562,0.26-1.129,0.508-1.684,0.782
	c-1.609,0.797-3.294,1.148-5.095,0.976C121.28,181.149,119.775,179.856,119.386,177.857z M22.714,169.562
	c0.059-0.622,0.076-1.176,0.17-1.715c0.2-1.156,0.799-1.71,1.972-1.802c0.513-0.04,1.035,0.016,1.552,0.049
	c0.755,0.049,1.51,0.167,2.264,0.165c0.877-0.002,1.44-0.645,1.432-1.514c-0.009-0.988-0.566-1.628-1.754-1.875
	c-2.233-0.463-4.453-0.336-6.621,0.356c-1.546,0.493-2.534,1.578-2.871,3.171c-0.164,0.773-0.208,1.577-0.256,2.37
	c-0.048,0.792-0.02,0.781-0.84,0.798c-0.596,0.013-1.203,0.005-1.785,0.114c-0.924,0.175-1.324,0.787-1.284,1.795
	c0.042,1.063,0.475,1.63,1.435,1.75c0.671,0.084,1.354,0.086,2.032,0.097c0.304,0.006,0.43,0.104,0.429,0.417
	c-0.005,2.179-0.004,4.358,0.006,6.537c0.001,0.354-0.121,0.493-0.488,0.493c-0.659,0-1.32,0.023-1.976,0.083
	c-0.791,0.071-1.224,0.496-1.368,1.267c-0.292,1.56,0.379,2.385,1.973,2.391c2.579,0.01,5.158,0.004,7.737,0.004
	c0.64,0,1.28,0.015,1.919-0.01c1.154-0.044,1.743-0.638,1.772-1.749c0.033-1.258-0.455-1.842-1.687-1.918
	c-0.996-0.061-1.997-0.049-2.995-0.074c-0.231-0.006-0.461-0.03-0.673-0.045c0-2.497,0-4.923,0-7.389
	c0.59,0,1.128,0.013,1.667-0.003c0.877-0.024,1.758-0.03,2.63-0.115c0.683-0.066,1.167-0.496,1.259-1.181
	c0.198-1.465-0.082-2.383-1.901-2.46c-0.579-0.024-1.159-0.007-1.739-0.008C24.09,169.562,23.455,169.562,22.714,169.562z
	 M51.137,176.826c-0.012-2.888-1.191-5.181-3.663-6.663c-3.128-1.875-6.479-1.964-9.772-0.561c-3.042,1.297-4.67,3.729-4.724,7.089
	c-0.052,3.186,1.349,5.58,4.138,7.106c2.271,1.243,4.729,1.37,7.223,0.933C48.423,184.015,51.147,180.819,51.137,176.826z
	 M95.712,182.016c-0.011,0-0.021,0-0.032,0c0,0.5-0.006,0.999,0.003,1.499c0.003,0.138,0.05,0.274,0.078,0.411
	c0.165,0.779,0.617,1.151,1.404,1.035c0.463-0.068,0.899-0.299,1.357-0.423c0.273-0.074,0.586-0.174,0.843-0.109
	c1.637,0.415,3.298,0.611,4.98,0.542c1.524-0.062,3.022-0.299,4.354-1.127c1.656-1.029,2.334-2.567,2.233-4.467
	c-0.105-2.002-1.199-3.267-3.088-3.794c-1.3-0.362-2.64-0.58-3.961-0.868c-1.028-0.225-2.071-0.402-3.07-0.721
	c-0.319-0.102-0.651-0.55-0.738-0.898c-0.126-0.507,0.233-0.948,0.698-1.136c0.508-0.204,1.064-0.348,1.61-0.392
	c1.497-0.118,2.735,0.556,3.937,1.359c0.557,0.372,1.166,0.701,1.797,0.916c0.799,0.271,1.572-0.267,1.624-1.106
	c0.059-0.956,0.059-1.919,0.007-2.875c-0.045-0.832-0.613-1.324-1.445-1.239c-0.432,0.044-0.836,0.313-1.262,0.455
	c-0.258,0.085-0.56,0.223-0.797,0.161c-1.617-0.417-3.254-0.598-4.921-0.51c-1.375,0.073-2.67,0.398-3.844,1.157
	c-2.431,1.572-2.478,5.561-0.083,7.17c1.441,0.97,3.098,1.205,4.755,1.453c1.241,0.186,2.505,0.291,3.627,0.926
	c0.896,0.507,0.956,1.41,0.128,2.022c-0.267,0.196-0.589,0.384-0.907,0.432c-1.747,0.267-3.435,0.083-4.903-0.983
	c-0.504-0.366-0.88-0.909-1.313-1.373c-0.55-0.589-1.204-0.808-2.002-0.617c-0.765,0.182-0.99,0.765-1.057,1.425
	C95.668,180.894,95.712,181.457,95.712,182.016z M159.268,173.809c0,0.337-0.003,0.594,0.001,0.852
	c0.03,1.878,0.007,3.759,0.109,5.632c0.127,2.337,1.177,3.64,3.46,4.221c3.076,0.781,6.019,0.295,8.787-1.23
	c0.343-0.188,0.648-0.472,0.916-0.761c0.565-0.613,0.615-1.441,0.18-2.16c-0.418-0.688-1.13-0.962-1.965-0.729
	c-0.44,0.123-0.868,0.289-1.304,0.433c-0.868,0.288-1.719,0.706-2.61,0.836c-2.159,0.314-3.328-0.03-3.337-2.582
	c-0.005-1.32,0.011-2.64-0.026-3.958c-0.015-0.523,0.178-0.615,0.662-0.609c1.618,0.018,3.238-0.012,4.856-0.047
	c0.661-0.014,1.272-0.26,1.47-0.932c0.407-1.391,0.149-2.733-1.723-2.735c-1.52-0.002-3.039-0.005-4.558-0.011
	c-0.213-0.001-0.426-0.018-0.697-0.029c0-0.339,0.005-0.616-0.001-0.893c-0.026-1.198-0.027-2.397-0.097-3.593
	c-0.044-0.773-0.451-1.188-1.212-1.351c-0.328-0.071-0.672-0.113-1.006-0.102c-1.242,0.044-1.816,0.604-1.892,1.848
	c-0.034,0.578-0.013,1.159-0.014,1.738c-0.002,0.773-0.001,1.546-0.001,2.394c-0.674,0-1.27-0.014-1.864,0.003
	c-1.15,0.031-1.725,0.591-1.745,1.678c-0.025,1.319,0.481,1.922,1.684,1.993C157.956,173.75,158.571,173.774,159.268,173.809z
	 M61.759,180.765c0-1.755-0.003-3.409,0.007-5.063c0-0.126,0.061-0.295,0.153-0.369c1.004-0.814,1.99-1.657,3.045-2.4
	c0.639-0.451,1.376-0.402,2.105-0.043c0.622,0.306,1.269,0.605,1.939,0.756c1.398,0.315,2.704-0.789,2.711-2.21
	c0.007-1.426-1.091-2.521-2.672-2.71c-2.047-0.244-3.88,0.276-5.496,1.534c-0.729,0.567-1.405,1.204-2.15,1.85
	c0-0.705,0.003-1.36,0-2.016c-0.004-0.705-0.253-0.984-0.965-1c-0.999-0.022-1.999-0.02-2.998-0.004
	c-0.496,0.008-1.002,0.018-1.484,0.117c-0.862,0.179-1.228,0.764-1.208,1.794c0.019,0.979,0.466,1.593,1.311,1.74
	c0.465,0.081,0.939,0.108,1.422,0.161c0,2.618,0,5.203,0,7.813c-0.635,0.045-1.23,0.07-1.823,0.132
	c-0.688,0.072-1.193,0.378-1.398,1.102c-0.432,1.518,0.31,2.553,1.892,2.561c2.638,0.014,5.276,0.005,7.915,0.005
	c0.659,0,1.32,0.021,1.979-0.012c1.119-0.054,1.683-0.671,1.71-1.817c0.027-1.148-0.506-1.758-1.648-1.854
	c-0.517-0.043-1.037-0.059-1.556-0.064C63.651,180.757,62.754,180.765,61.759,180.765z M183.142,172.896
	c0,2.534-0.004,5.012,0.005,7.489c0.002,0.406-0.257,0.378-0.521,0.383c-1.219,0.023-2.441,0-3.653,0.1
	c-0.41,0.033-0.918,0.281-1.165,0.599c-0.502,0.646-0.422,1.442-0.128,2.171c0.268,0.663,0.902,0.79,1.532,0.867
	c0.158,0.019,0.32,0.008,0.479,0.008c3.7,0.001,7.399,0.002,11.099,0c0.239,0,0.482,0.007,0.718-0.031
	c1.06-0.173,1.557-0.815,1.52-1.939c-0.036-1.063-0.527-1.627-1.613-1.698c-1.095-0.072-2.197-0.1-3.294-0.06
	c-0.621,0.022-0.777-0.167-0.772-0.769c0.026-3.239,0.016-6.479,0.01-9.718c-0.001-0.958-0.251-1.204-1.212-1.211
	c-1.18-0.009-2.359-0.01-3.539-0.001c-0.658,0.004-1.327-0.033-1.973,0.067c-1.057,0.166-1.464,0.741-1.443,1.85
	c0.02,1.065,0.439,1.606,1.494,1.75C181.469,172.859,182.269,172.85,183.142,172.896z M186.958,164.362
	c-0.013,0-0.024-0.001-0.037-0.001c0-0.26,0.008-0.521-0.001-0.779c-0.054-1.593-0.526-2.036-2.279-1.991
	c-0.119,0.003-0.238,0.028-0.356,0.044c-0.862,0.118-1.276,0.472-1.371,1.321c-0.091,0.811-0.13,1.632-0.113,2.448
	c0.018,0.898,0.385,1.322,1.229,1.418c0.57,0.064,1.158,0.037,1.731-0.017c0.624-0.059,1.024-0.42,1.092-1.071
	C186.899,165.278,186.923,164.82,186.958,164.362z"/>
<path fill-rule="evenodd" clip-rule="evenodd" fill="#FFFFFF" d="M45.922,137.786c-10.827-0.001-20.378-7.489-22.936-17.982
	c-2.784-11.424,3.183-23.138,14.087-27.539c4.931-1.991,9.987-2.249,15.146-0.889c0.9,0.237,1.902,0.184,2.85,0.133
	c5.533-0.295,10.088-2.777,14.258-6.261c4.851-4.053,9.041-8.688,12.808-13.74c2.139-2.868,4.342-5.687,6.526-8.52
	c1.029-1.336,1.554-2.822,1.104-4.479c-0.186-0.684-0.689-1.288-1.073-1.913c-1.868-3.041-3.018-6.325-3.358-9.882
	c-0.69-7.214,1.421-13.508,6.378-18.779c3.707-3.941,8.301-6.285,13.671-7.067c11.817-1.72,22.702,5.516,26.007,16.55
	c1.823,6.084,1.231,12.002-1.655,17.66c-0.899,1.764-0.852,3.563-0.326,5.349c0.314,1.071,0.83,2.132,1.469,3.049
	c4.112,5.903,8.207,11.82,12.463,17.619c2.505,3.412,5.285,6.622,7.959,9.909c2.989,3.674,6.008,7.326,8.996,11.002
	c1.257,1.547,2.836,2.32,4.843,2.286c2.317-0.041,4.658-0.057,6.894,0.62c5.008,1.516,8.102,4.868,9.122,10.02
	c1.295,6.539-3.041,13.187-9.75,14.655c-3.472,0.761-6.687,0.115-9.696-1.739c-1.55-0.954-2.882-2.094-3.955-3.597
	c-1.002-1.4-2.501-2.071-4.236-2.149c-2.734-0.124-5.468-0.298-8.203-0.354c-4.303-0.087-8.508,0.614-12.646,1.753
	c-0.576,0.159-1.168,0.272-1.732,0.467c-2.448,0.84-3.902,2.549-4.346,5.098c-0.473,2.72-1.516,5.212-3.108,7.448
	c-2.683,3.764-6.294,6.181-10.816,7.2c-7.638,1.723-15.634-1.819-19.49-8.628c-4.73-8.354-2.151-18.789,5.876-24.068
	c2.519-1.656,4.706-3.714,6.258-6.35c0.976-1.657,1.372-3.491,1.384-5.394c0.027-4.299,0.078-8.6-0.016-12.897
	c-0.05-2.33-0.259-4.671-0.606-6.976c-0.462-3.071-1.094-6.119-1.726-9.161c-0.245-1.179-0.901-2.228-1.884-2.92
	c-2.576-1.814-5.795-2.337-8.438,0.209c-3.037,2.925-6.214,5.705-9.266,8.615c-4.715,4.498-8.939,9.43-12.603,14.82
	c-2.191,3.224-3.491,6.818-3.79,10.717c-0.127,1.663-0.119,3.355,0.029,5.017c0.11,1.237,0.623,2.433,0.82,3.668
	c0.991,6.193-0.276,11.922-3.804,17.097c-3.301,4.844-7.825,8.06-13.513,9.509c-1.94,0.494-3.961,0.667-5.946,0.986
	C45.941,137.901,45.932,137.844,45.922,137.786z M137.108,119.426c2.479-0.147,4.643-0.178,6.781-0.429
	c2.889-0.339,5.759-0.841,8.635-1.289c1.386-0.216,2.403-0.95,2.921-2.276c0.681-1.743,1.348-3.491,1.983-5.251
	c0.596-1.649,0.415-3.234-0.613-4.669c-3.826-5.344-7.623-10.71-11.518-16.004c-4.256-5.786-9.234-10.914-14.602-15.678
	c-2.57-2.282-5.104-4.595-7.99-6.492c-3.829-2.518-8.782-0.618-9.832,3.835c-1.015,4.3-1.631,8.658-1.813,13.077
	c-0.163,3.937-0.214,7.87,0.382,11.777c0.606,3.985,2.101,7.634,4.271,11.025c1.296,2.023,3.002,3.672,4.67,5.366
	c1.33,1.35,2.569,2.787,3.866,4.17c1.13,1.205,2.524,2.029,4.155,2.193C131.402,119.082,134.415,119.234,137.108,119.426z"/>
<path fill-rule="evenodd" clip-rule="evenodd" fill="#FFFFFF" d="M78.475,177.897c0.368,1.968,1.897,3.252,3.897,3.444
	c1.919,0.185,3.675-0.277,5.366-1.126c0.427-0.214,0.881-0.377,1.304-0.601c1.278-0.675,2.31,0.375,2.159,1.687
	c-0.081,0.704-0.456,1.226-0.979,1.656c-1.192,0.979-2.608,1.456-4.095,1.713c-2.203,0.379-4.41,0.455-6.565-0.287
	c-5.892-2.028-6.721-8.372-4.151-12.043c1.35-1.929,3.256-3.016,5.562-3.418c2.407-0.421,4.746-0.276,6.89,1.009
	c2.259,1.353,3.574,3.323,3.648,6.012c0.036,1.298-0.438,1.826-1.723,1.843c-3.497,0.048-6.995,0.05-10.492,0.072
	C79.023,177.859,78.753,177.884,78.475,177.897z M87.117,175.087c-0.175-1.677-1.762-2.939-3.75-3.053
	c-2.695-0.153-4.414,0.905-4.896,3.053C81.346,175.087,84.212,175.087,87.117,175.087z"/>
<path fill-rule="evenodd" clip-rule="evenodd" fill="#FFFFFF" d="M139.8,177.856c0.302,1.946,1.887,3.299,3.886,3.484
	c1.761,0.163,3.406-0.178,4.983-0.944c0.574-0.278,1.155-0.543,1.739-0.803c0.518-0.23,1.045-0.317,1.522,0.082
	c0.518,0.435,0.686,1.013,0.592,1.669c-0.119,0.837-0.644,1.402-1.3,1.859c-1.448,1.008-3.103,1.448-4.823,1.631
	c-1.855,0.197-3.702,0.158-5.507-0.439c-3.475-1.148-5.576-4.116-5.512-7.831c0.061-3.454,2.365-6.402,5.794-7.37
	c2.688-0.76,5.347-0.752,7.836,0.645c2.376,1.332,3.755,3.357,3.819,6.153c0.029,1.242-0.452,1.776-1.711,1.792
	c-3.497,0.046-6.995,0.051-10.492,0.072C140.356,177.857,140.085,177.856,139.8,177.856z M148.438,175.084
	c-0.171-1.687-1.797-2.962-3.809-3.051c-2.701-0.119-4.394,0.937-4.832,3.051C142.671,175.084,145.535,175.084,148.438,175.084z"/>
<path fill-rule="evenodd" clip-rule="evenodd" fill="#FFFFFF" d="M119.386,177.857c0.39,1.999,1.895,3.292,3.859,3.48
	c1.801,0.173,3.485-0.179,5.095-0.976c0.555-0.274,1.122-0.522,1.684-0.782c1.271-0.589,2.231,0.435,2.117,1.668
	c-0.065,0.711-0.451,1.267-1.001,1.713c-1.248,1.014-2.726,1.503-4.272,1.748c-2.144,0.338-4.285,0.375-6.393-0.32
	c-3.438-1.135-5.552-4.108-5.493-7.782c0.055-3.48,2.333-6.437,5.757-7.4c2.943-0.828,5.821-0.764,8.452,0.987
	c2.055,1.367,3.206,3.303,3.244,5.819c0.019,1.212-0.467,1.755-1.676,1.771c-3.537,0.046-7.075,0.053-10.612,0.074
	C119.91,177.858,119.674,177.857,119.386,177.857z M128.027,175.084c-0.06-1.459-1.554-2.931-3.88-3.06
	c-2.721-0.152-4.422,1.17-4.718,3.06C122.298,175.084,125.161,175.084,128.027,175.084z"/>
<path fill-rule="evenodd" clip-rule="evenodd" fill="#FFFFFF" d="M22.714,169.562c0.741,0,1.376,0,2.01,0
	c0.58,0.001,1.161-0.017,1.739,0.008c1.819,0.077,2.099,0.995,1.901,2.46c-0.092,0.685-0.576,1.114-1.259,1.181
	c-0.872,0.085-1.752,0.091-2.63,0.115c-0.538,0.016-1.077,0.003-1.667,0.003c0,2.466,0,4.892,0,7.389
	c0.212,0.015,0.442,0.039,0.673,0.045c0.999,0.025,1.999,0.014,2.995,0.074c1.232,0.076,1.72,0.66,1.687,1.918
	c-0.029,1.111-0.618,1.705-1.772,1.749c-0.639,0.024-1.279,0.01-1.919,0.01c-2.579,0-5.158,0.006-7.737-0.004
	c-1.594-0.006-2.265-0.831-1.973-2.391c0.144-0.771,0.577-1.195,1.368-1.267c0.656-0.06,1.317-0.083,1.976-0.083
	c0.367,0,0.49-0.139,0.488-0.493c-0.01-2.179-0.011-4.358-0.006-6.537c0.001-0.313-0.125-0.411-0.429-0.417
	c-0.678-0.011-1.361-0.013-2.032-0.097c-0.96-0.12-1.394-0.687-1.435-1.75c-0.04-1.008,0.36-1.62,1.284-1.795
	c0.582-0.109,1.189-0.102,1.785-0.114c0.82-0.017,0.792-0.006,0.84-0.798c0.047-0.793,0.092-1.597,0.256-2.37
	c0.337-1.593,1.325-2.678,2.871-3.171c2.168-0.692,4.388-0.819,6.621-0.356c1.188,0.247,1.745,0.887,1.754,1.875
	c0.008,0.869-0.554,1.512-1.432,1.514c-0.754,0.002-1.509-0.116-2.264-0.165c-0.517-0.033-1.039-0.089-1.552-0.049
	c-1.172,0.092-1.771,0.646-1.972,1.802C22.79,168.387,22.773,168.94,22.714,169.562z"/>
<path fill-rule="evenodd" clip-rule="evenodd" fill="#FFFFFF" d="M51.137,176.826c0.011,3.993-2.714,7.188-6.799,7.904
	c-2.493,0.438-4.951,0.311-7.223-0.933c-2.789-1.526-4.189-3.921-4.138-7.106c0.054-3.36,1.682-5.792,4.724-7.089
	c3.293-1.403,6.644-1.314,9.772,0.561C49.946,171.646,51.125,173.938,51.137,176.826z M42.02,181.325
	c2.54,0.01,4.415-1.888,4.44-4.493s-1.812-4.471-4.408-4.474c-2.566-0.003-4.395,1.827-4.412,4.415
	C37.624,179.368,39.497,181.315,42.02,181.325z"/>
<path fill-rule="evenodd" clip-rule="evenodd" fill="#FFFFFF" d="M95.712,182.016c0-0.559-0.044-1.122,0.011-1.675
	c0.066-0.66,0.292-1.243,1.057-1.425c0.798-0.19,1.452,0.028,2.002,0.617c0.433,0.464,0.81,1.007,1.313,1.373
	c1.469,1.066,3.156,1.25,4.903,0.983c0.318-0.048,0.641-0.235,0.907-0.432c0.828-0.612,0.768-1.516-0.128-2.022
	c-1.122-0.635-2.386-0.74-3.627-0.926c-1.657-0.248-3.314-0.483-4.755-1.453c-2.394-1.609-2.347-5.598,0.083-7.17
	c1.174-0.759,2.469-1.084,3.844-1.157c1.667-0.088,3.304,0.093,4.921,0.51c0.237,0.062,0.539-0.076,0.797-0.161
	c0.426-0.142,0.83-0.411,1.262-0.455c0.832-0.085,1.4,0.407,1.445,1.239c0.052,0.956,0.052,1.919-0.007,2.875
	c-0.052,0.84-0.825,1.378-1.624,1.106c-0.631-0.215-1.24-0.544-1.797-0.916c-1.201-0.804-2.439-1.478-3.937-1.359
	c-0.545,0.044-1.102,0.188-1.61,0.392c-0.465,0.188-0.824,0.629-0.698,1.136c0.087,0.349,0.419,0.797,0.738,0.898
	c0.999,0.318,2.042,0.496,3.07,0.721c1.321,0.288,2.661,0.506,3.961,0.868c1.889,0.527,2.982,1.792,3.088,3.794
	c0.101,1.899-0.577,3.438-2.233,4.467c-1.331,0.828-2.829,1.064-4.354,1.127c-1.683,0.069-3.343-0.127-4.98-0.542
	c-0.257-0.064-0.57,0.035-0.843,0.109c-0.458,0.124-0.894,0.354-1.357,0.423c-0.788,0.116-1.24-0.256-1.404-1.035
	c-0.028-0.137-0.075-0.273-0.078-0.411c-0.009-0.5-0.003-0.999-0.003-1.499C95.691,182.016,95.702,182.016,95.712,182.016z"/>
<path fill-rule="evenodd" clip-rule="evenodd" fill="#FFFFFF" d="M159.268,173.809c-0.696-0.034-1.312-0.059-1.926-0.095
	c-1.202-0.071-1.709-0.674-1.684-1.993c0.021-1.087,0.595-1.646,1.745-1.678c0.595-0.017,1.19-0.003,1.864-0.003
	c0-0.848-0.001-1.62,0.001-2.394c0.001-0.579-0.021-1.16,0.014-1.738c0.075-1.244,0.649-1.804,1.892-1.848
	c0.334-0.012,0.678,0.03,1.006,0.102c0.761,0.163,1.168,0.577,1.212,1.351c0.069,1.195,0.07,2.395,0.097,3.593
	c0.006,0.276,0.001,0.554,0.001,0.893c0.271,0.012,0.484,0.028,0.697,0.029c1.519,0.006,3.038,0.009,4.558,0.011
	c1.872,0.002,2.13,1.345,1.723,2.735c-0.197,0.672-0.809,0.918-1.47,0.932c-1.618,0.035-3.238,0.064-4.856,0.047
	c-0.484-0.006-0.677,0.086-0.662,0.609c0.037,1.318,0.021,2.638,0.026,3.958c0.009,2.552,1.178,2.896,3.337,2.582
	c0.892-0.13,1.742-0.548,2.61-0.836c0.436-0.144,0.863-0.31,1.304-0.433c0.835-0.233,1.547,0.041,1.965,0.729
	c0.436,0.719,0.386,1.547-0.18,2.16c-0.268,0.289-0.573,0.572-0.916,0.761c-2.769,1.525-5.711,2.012-8.787,1.23
	c-2.283-0.581-3.333-1.884-3.46-4.221c-0.103-1.873-0.079-3.754-0.109-5.632C159.265,174.402,159.268,174.146,159.268,173.809z"/>
<path fill-rule="evenodd" clip-rule="evenodd" fill="#FFFFFF" d="M61.759,180.765c0.995,0,1.892-0.008,2.789,0.002
	c0.519,0.006,1.04,0.021,1.556,0.064c1.142,0.096,1.675,0.705,1.648,1.854c-0.027,1.146-0.592,1.764-1.71,1.817
	c-0.658,0.032-1.319,0.012-1.979,0.012c-2.639,0-5.277,0.009-7.915-0.005c-1.582-0.008-2.323-1.043-1.892-2.561
	c0.206-0.724,0.711-1.029,1.398-1.102c0.592-0.062,1.188-0.087,1.823-0.132c0-2.61,0-5.195,0-7.813
	c-0.483-0.053-0.957-0.08-1.422-0.161c-0.844-0.147-1.292-0.761-1.311-1.74c-0.019-1.03,0.347-1.615,1.208-1.794
	c0.482-0.1,0.988-0.109,1.484-0.117c1-0.016,1.999-0.019,2.998,0.004c0.712,0.016,0.961,0.295,0.965,1c0.003,0.655,0,1.311,0,2.016
	c0.746-0.646,1.421-1.282,2.15-1.85c1.615-1.258,3.448-1.778,5.496-1.534c1.582,0.188,2.68,1.284,2.672,2.71
	c-0.007,1.421-1.312,2.525-2.711,2.21c-0.67-0.15-1.318-0.45-1.939-0.756c-0.729-0.359-1.466-0.408-2.105,0.043
	c-1.055,0.743-2.041,1.586-3.045,2.4c-0.092,0.074-0.153,0.243-0.153,0.369C61.756,177.355,61.759,179.01,61.759,180.765z"/>
<path fill-rule="evenodd" clip-rule="evenodd" fill="#FFFFFF" d="M183.142,172.896c-0.873-0.047-1.673-0.037-2.457-0.144
	c-1.055-0.144-1.475-0.685-1.494-1.75c-0.021-1.108,0.387-1.684,1.443-1.85c0.646-0.101,1.314-0.063,1.973-0.067
	c1.18-0.009,2.359-0.008,3.539,0.001c0.961,0.007,1.211,0.253,1.212,1.211c0.006,3.239,0.017,6.479-0.01,9.718
	c-0.005,0.602,0.151,0.791,0.772,0.769c1.097-0.04,2.199-0.013,3.294,0.06c1.086,0.071,1.577,0.635,1.613,1.698
	c0.037,1.124-0.46,1.767-1.52,1.939c-0.235,0.038-0.479,0.031-0.718,0.031c-3.699,0.002-7.398,0.001-11.099,0
	c-0.159,0-0.321,0.011-0.479-0.008c-0.63-0.077-1.265-0.204-1.532-0.867c-0.294-0.729-0.374-1.525,0.128-2.171
	c0.247-0.317,0.755-0.565,1.165-0.599c1.212-0.1,2.435-0.076,3.653-0.1c0.264-0.005,0.522,0.023,0.521-0.383
	C183.138,177.908,183.142,175.431,183.142,172.896z"/>
<path fill-rule="evenodd" clip-rule="evenodd" fill="#FFFFFF" d="M186.958,164.362c-0.035,0.458-0.059,0.916-0.106,1.372
	c-0.067,0.651-0.468,1.013-1.092,1.071c-0.573,0.054-1.161,0.081-1.731,0.017c-0.844-0.096-1.211-0.52-1.229-1.418
	c-0.017-0.816,0.022-1.638,0.113-2.448c0.095-0.85,0.509-1.203,1.371-1.321c0.118-0.016,0.237-0.041,0.356-0.044
	c1.753-0.045,2.226,0.398,2.279,1.991c0.009,0.259,0.001,0.52,0.001,0.779C186.934,164.361,186.945,164.362,186.958,164.362z"/>
<path fill-rule="evenodd" clip-rule="evenodd" fill="#2058A1" d="M137.108,119.426c-2.693-0.191-5.706-0.344-8.703-0.646
	c-1.631-0.164-3.025-0.988-4.155-2.193c-1.297-1.383-2.536-2.82-3.866-4.17c-1.668-1.694-3.374-3.343-4.67-5.366
	c-2.171-3.391-3.665-7.04-4.271-11.025c-0.596-3.907-0.545-7.84-0.382-11.777c0.183-4.419,0.799-8.776,1.813-13.077
	c1.05-4.453,6.003-6.353,9.832-3.835c2.886,1.897,5.42,4.21,7.99,6.492c5.367,4.764,10.346,9.893,14.602,15.678
	c3.895,5.294,7.691,10.66,11.518,16.004c1.028,1.435,1.209,3.02,0.613,4.669c-0.636,1.76-1.303,3.508-1.983,5.251
	c-0.518,1.326-1.535,2.061-2.921,2.276c-2.876,0.448-5.746,0.95-8.635,1.289C141.751,119.248,139.587,119.278,137.108,119.426z"/>
<path fill-rule="evenodd" clip-rule="evenodd" fill="#2058A1" d="M87.117,175.087c-2.905,0-5.771,0-8.647,0
	c0.483-2.147,2.202-3.206,4.896-3.053C85.355,172.147,86.942,173.41,87.117,175.087z"/>
<path fill-rule="evenodd" clip-rule="evenodd" fill="#2058A1" d="M148.438,175.084c-2.903,0-5.768,0-8.641,0
	c0.438-2.114,2.131-3.17,4.832-3.051C146.642,172.122,148.268,173.397,148.438,175.084z"/>
<path fill-rule="evenodd" clip-rule="evenodd" fill="#2058A1" d="M128.027,175.084c-2.866,0-5.729,0-8.598,0
	c0.296-1.89,1.997-3.212,4.718-3.06C126.474,172.153,127.968,173.625,128.027,175.084z"/>
<path fill-rule="evenodd" clip-rule="evenodd" fill="#2058A1" d="M42.02,181.325c-2.522-0.01-4.396-1.957-4.379-4.552
	c0.017-2.588,1.845-4.418,4.412-4.415c2.595,0.003,4.433,1.868,4.408,4.474S44.559,181.335,42.02,181.325z"/>
</svg>

