<?xml version="1.0" encoding="UTF-8"?>
<svg width="220px" height="35px" viewBox="0 0 220 35" version="1.1" xmlns="http://www.w3.org/2000/svg" xmlns:xlink="http://www.w3.org/1999/xlink">
    <!-- Generator: Sketch 43.2 (39069) - http://www.bohemiancoding.com/sketch -->
    <title>omnisiens-logo</title>
    <desc>Created with Sketch.</desc>
    <defs></defs>
    <g id="Ticket-Design" stroke="none" stroke-width="1" fill="none" fill-rule="evenodd">
        <g id="A4-flow" transform="translate(-190.000000, -663.000000)">
            <g id="omnisiens-logo" transform="translate(190.000000, 663.000000)">
                <path d="M61.8903853,27.4933668 C64.4205695,27.4933668 66.3312898,26.6524288 67.6162814,24.9661307 C68.9034841,23.2827806 69.5476382,20.7780235 69.5476382,17.4500168 C69.5476382,14.0825796 68.9034841,11.5553434 67.6162814,9.87125628 C66.3312898,8.1879062 64.4205695,7.34475712 61.8903853,7.34475712 C59.3579899,7.34475712 57.4424791,8.1879062 56.1468007,9.87125628 C54.8474372,11.5553434 54.2007035,14.0825796 54.2007035,17.4500168 C54.2007035,20.7979229 54.8474372,23.3093132 56.1468007,24.9838191 C57.4424791,26.6568509 59.3579899,27.4933668 61.8903853,27.4933668 L61.8903853,27.4933668 Z M61.8903853,29.3458626 C58.7094137,29.3458626 56.2709883,28.3464657 54.5769514,26.3476717 C52.8832831,24.3503518 52.0353434,21.3838526 52.0353434,17.4500168 C52.0353434,13.5172864 52.8832831,10.5408375 54.5769514,8.52140704 C56.2709883,6.50234506 58.7094137,5.49226131 61.8903853,5.49226131 C65.0282412,5.49226131 67.4493467,6.50234506 69.1555444,8.52140704 C70.860268,10.5408375 71.7133668,13.5172864 71.7133668,17.4500168 C71.7133668,21.3635846 70.860268,24.3249246 69.1555444,26.3325628 C67.4493467,28.3413065 65.0282412,29.3458626 61.8903853,29.3458626 L61.8903853,29.3458626 Z" id="Fill-1" fill="#212429"></path>
                <polyline id="Fill-2" fill="#212429" points="76.3256281 5.80770519 79.2438526 5.80770519 85.6161139 20.7455946 87.6230151 25.7996985 87.8120603 25.7996985 89.8524958 20.7455946 96.2232831 5.80770519 99.1422446 5.80770519 99.1422446 29.0307873 97.1648241 29.0307873 97.1648241 8.72556114 96.9765159 8.72556114 94.2775544 15.3174539 88.7536013 28.1220436 86.7139028 28.1220436 81.1903183 15.3174539 78.4592965 8.72556114 78.3026801 8.72556114 78.3026801 29.0307873 76.3256281 29.0307873 76.3256281 5.80770519"></polyline>
                <polyline id="Fill-3" fill="#212429" points="104.979062 5.80770519 106.894941 5.80770519 119.353501 22.9441206 121.236214 25.7053601 121.392831 25.7053601 121.392831 5.80770519 123.370988 5.80770519 123.370988 29.0307873 121.424891 29.0307873 108.902211 11.8331993 107.114204 9.16556114 106.957588 9.16556114 106.957588 29.0307873 104.979062 29.0307873 104.979062 5.80770519"></polyline>
                <polygon id="Fill-4" fill="#212429" points="129.2067 29.0307873 131.342948 29.0307873 131.342948 5.80770519 129.2067 5.80770519"></polygon>
                <path d="M142.701876,29.3764489 C141.699531,29.3764489 140.558258,29.2883752 139.281742,29.1089112 C138.005963,28.9320268 136.792462,28.6969179 135.641608,28.4043216 L135.704623,26.5518258 C136.855109,26.8447906 138.059397,27.081005 139.313802,27.258995 C140.568208,27.4373534 141.678157,27.5254271 142.640335,27.5254271 C144.545528,27.5254271 146.004087,27.1547069 147.018961,26.4103183 C148.033467,25.6681407 148.541642,24.6057286 148.541642,23.2249246 C148.541642,22.4521608 148.394975,21.798057 148.10201,21.2637186 C147.808677,20.7301173 147.405159,20.280536 146.892563,19.9146064 C146.380335,19.5483082 145.779296,19.2358124 145.087605,18.9730653 C144.397755,18.7114238 143.654841,18.4656281 142.860335,18.2356784 C141.646466,17.8796985 140.610586,17.4990285 139.753802,17.0899832 C138.895176,16.6813065 138.193903,16.2155109 137.649983,15.6937018 C137.105695,15.1700503 136.708811,14.5745394 136.457119,13.9034841 C136.206164,13.2339028 136.079765,12.4600335 136.079765,11.5807705 C136.079765,10.6392295 136.26402,9.78355109 136.62995,9.0078392 C136.996985,8.23360134 137.51474,7.56917923 138.183585,7.01420436 C138.852429,6.46144054 139.659832,6.03691792 140.601374,5.74432161 C141.541441,5.45098827 142.598325,5.30505863 143.769447,5.30505863 C145.443953,5.30505863 147.4,5.55527638 149.638325,6.05755444 L149.576415,7.94063652 C148.592127,7.69078727 147.604523,7.49658291 146.610285,7.36023451 C145.615678,7.22425461 144.711725,7.1560804 143.895109,7.1560804 C142.17933,7.1560804 140.813635,7.55407035 139.79876,8.34968174 C138.784255,9.14455611 138.278291,10.2124958 138.278291,11.5509213 C138.278291,12.1567504 138.371893,12.6962479 138.559095,13.1664657 C138.748878,13.6363149 139.056583,14.0652596 139.485896,14.4536683 C139.915578,14.8402345 140.480503,15.1914238 141.181407,15.5042881 C141.880838,15.8193635 142.754941,16.1222781 143.802613,16.4152429 C144.78469,16.7089447 145.700804,17.0214405 146.546533,17.3575209 C147.394841,17.6913903 148.127806,18.1103853 148.74469,18.6119263 C149.361575,19.1145729 149.848744,19.7255611 150.203618,20.4478392 C150.559966,21.1697487 150.737588,22.0637521 150.737588,23.1309548 C150.737588,25.140067 150.047739,26.6826466 148.666566,27.7609045 C147.285762,28.8384255 145.296918,29.3764489 142.701876,29.3764489" id="Fill-5" fill="#212429"></path>
                <polygon id="Fill-6" fill="#212429" points="154.941173 29.0307873 157.076683 29.0307873 157.076683 5.80770519 154.941173 5.80770519"></polygon>
                <polyline id="Fill-7" fill="#212429" points="162.913132 5.80770519 177.130586 5.80770519 177.130586 7.65835846 165.048643 7.65835846 165.048643 16.3201675 176.37809 16.3201675 176.37809 18.1402345 165.048643 18.1402345 165.048643 27.1805025 177.383384 27.1805025 177.383384 29.0307873 162.913132 29.0307873 162.913132 5.80770519"></polyline>
                <polyline id="Fill-8" fill="#212429" points="181.93263 5.80770519 183.847035 5.80770519 196.307069 22.9441206 198.190151 25.7053601 198.34603 25.7053601 198.34603 5.80770519 200.323082 5.80770519 200.323082 29.0307873 198.377722 29.0307873 185.856147 11.8331993 184.066298 9.16556114 183.909682 9.16556114 183.909682 29.0307873 181.93263 29.0307873 181.93263 5.80770519"></polyline>
                <path d="M211.683853,29.3764489 C210.678559,29.3764489 209.538392,29.2883752 208.262982,29.1089112 C206.986466,28.9320268 205.772596,28.6969179 204.622848,28.4043216 L204.685126,26.5518258 C205.835611,26.8447906 207.038425,27.081005 208.293936,27.258995 C209.55129,27.4373534 210.658291,27.5254271 211.621206,27.5254271 C213.524925,27.5254271 214.983484,27.1547069 215.999095,26.4103183 C217.013601,25.6681407 217.520302,24.6057286 217.520302,23.2249246 C217.520302,22.4521608 217.37474,21.798057 217.081407,21.2637186 C216.788442,20.7301173 216.386767,20.280536 215.874908,19.9146064 C215.360469,19.5483082 214.75943,19.2358124 214.069213,18.9730653 C213.378626,18.7114238 212.63608,18.4656281 211.840469,18.2356784 C210.626231,17.8796985 209.591089,17.4990285 208.733568,17.0899832 C207.87531,16.6813065 207.175142,16.2155109 206.629749,15.6937018 C206.087303,15.1700503 205.688576,14.5745394 205.438358,13.9034841 C205.187772,13.2339028 205.061742,12.4600335 205.061742,11.5807705 C205.061742,10.6392295 205.244154,9.78355109 205.609715,9.0078392 C205.976382,8.23360134 206.494506,7.56917923 207.164824,7.01420436 C207.834037,6.46144054 208.639966,6.03691792 209.581139,5.74432161 C210.52268,5.45098827 211.578459,5.30505863 212.751055,5.30505863 C214.425561,5.30505863 216.379765,5.55527638 218.618827,6.05755444 L218.557286,7.94063652 C217.574104,7.69078727 216.58392,7.49658291 215.591893,7.36023451 C214.596549,7.22425461 213.693702,7.1560804 212.87598,7.1560804 C211.160938,7.1560804 209.795611,7.55407035 208.781106,8.34968174 C207.766231,9.14455611 207.259162,10.2124958 207.259162,11.5509213 C207.259162,12.1567504 207.352027,12.6962479 207.541072,13.1664657 C207.730486,13.6363149 208.038928,14.0652596 208.467873,14.4536683 C208.894975,14.8402345 209.459899,15.1914238 210.162278,15.5042881 C210.863551,15.8193635 211.734707,16.1222781 212.782747,16.4152429 C213.766298,16.7089447 214.680201,17.0214405 215.528509,17.3575209 C216.37608,17.6913903 217.109045,18.1103853 217.725561,18.6119263 C218.34134,19.1145729 218.828509,19.7255611 219.184858,20.4478392 C219.541206,21.1697487 219.719196,22.0637521 219.719196,23.1309548 C219.719196,25.140067 219.027504,26.6826466 217.647069,27.7609045 C216.265159,28.8384255 214.27742,29.3764489 211.683853,29.3764489" id="Fill-9" fill="#212429"></path>
                <path d="M0,0.041641541 L0,16.8224456 L8.65001675,16.8224456 L8.65001675,8.69165829 L16.7804355,8.69165829 L16.7804355,0.041641541 L0,0.041641541 L0,0.041641541 Z M25.9474707,17.8609045 L25.9474707,25.9898492 L17.8174204,25.9898492 L17.8174204,34.639866 L34.5971189,34.639866 L34.5971189,17.8609045 L25.9474707,17.8609045 L25.9474707,17.8609045 Z M8.65001675,25.9898492 L8.65001675,17.8609045 L0,17.8609045 L0,34.639866 L16.7804355,34.639866 L16.7804355,25.9898492 L8.65001675,25.9898492 L8.65001675,25.9898492 Z M34.5971189,0.041641541 L17.8174204,0.041641541 L17.8174204,8.69165829 L25.9474707,8.69165829 L25.9474707,16.8224456 L34.5971189,16.8224456 L34.5971189,0.041641541 L34.5971189,0.041641541 Z M9.6881072,24.9524958 L24.9101173,24.9524958 L24.9101173,9.73011725 L9.6881072,9.73011725 L9.6881072,24.9524958 Z" id="Fill-11" fill="#E77A2D"></path>
            </g>
        </g>
    </g>
</svg>