<?xml version="1.0" encoding="UTF-8"?>
<svg width="240px" height="38px" viewBox="0 0 240 38" version="1.1" xmlns="http://www.w3.org/2000/svg" xmlns:xlink="http://www.w3.org/1999/xlink">
    <!-- Generator: Sketch 43.2 (39069) - http://www.bohemiancoding.com/sketch -->
    <title>omnisiens-white</title>
    <desc>Created with Sketch.</desc>
    <defs></defs>
    <g id="Page-1" stroke="none" stroke-width="1" fill="none" fill-rule="evenodd">
        <g id="omnisiens-home" transform="translate(-100.000000, -100.000000)">
            <g id="omnisiens-white" transform="translate(100.000000, 100.000000)">
                <path d="M67.5167839,29.9927638 C70.2769849,29.9927638 72.361407,29.0753769 73.7632161,27.2357789 C75.1674372,25.399397 75.8701508,22.6669347 75.8701508,19.0363819 C75.8701508,15.3628141 75.1674372,12.6058291 73.7632161,10.7686432 C72.361407,8.93226131 70.2769849,8.01246231 67.5167839,8.01246231 C64.7541709,8.01246231 62.6645226,8.93226131 61.2510553,10.7686432 C59.8335678,12.6058291 59.1280402,15.3628141 59.1280402,19.0363819 C59.1280402,22.6886432 59.8335678,25.4283417 61.2510553,27.2550754 C62.6645226,29.080201 64.7541709,29.9927638 67.5167839,29.9927638 L67.5167839,29.9927638 Z M67.5167839,32.0136683 C64.0466332,32.0136683 61.3865327,30.9234171 59.5384925,28.7429146 C57.6908543,26.5640201 56.7658291,23.3278392 56.7658291,19.0363819 C56.7658291,14.7461307 57.6908543,11.4990955 59.5384925,9.2960804 C61.3865327,7.09346734 64.0466332,5.99155779 67.5167839,5.99155779 C70.9398995,5.99155779 73.5811055,7.09346734 75.4424121,9.2960804 C77.3021106,11.4990955 78.2327638,14.7461307 78.2327638,19.0363819 C78.2327638,23.3057286 77.3021106,26.5362814 75.4424121,28.7264322 C73.5811055,30.9177889 70.9398995,32.0136683 67.5167839,32.0136683 L67.5167839,32.0136683 Z" id="Fill-1" fill="#FFFFFF"></path>
                <polyline id="Fill-2" fill="#FFFFFF" points="83.2643216 6.33567839 86.4478392 6.33567839 93.399397 22.6315578 95.5887437 28.1451256 95.7949749 28.1451256 98.0209045 22.6315578 104.970854 6.33567839 108.155176 6.33567839 108.155176 31.6699497 105.99799 31.6699497 105.99799 9.51879397 105.792563 9.51879397 102.848241 16.7099497 96.8221106 30.678593 94.5969849 30.678593 88.5712563 16.7099497 85.5919598 9.51879397 85.4211055 9.51879397 85.4211055 31.6699497 83.2643216 31.6699497 83.2643216 6.33567839"></polyline>
                <polyline id="Fill-3" fill="#FFFFFF" points="114.522613 6.33567839 116.612663 6.33567839 130.203819 25.0299497 132.257688 28.0422111 132.428543 28.0422111 132.428543 6.33567839 134.586533 6.33567839 134.586533 31.6699497 132.463518 31.6699497 118.802412 12.9089447 116.851859 9.99879397 116.681005 9.99879397 116.681005 31.6699497 114.522613 31.6699497 114.522613 6.33567839"></polyline>
                <polygon id="Fill-4" fill="#FFFFFF" points="140.952764 31.6699497 143.283216 31.6699497 143.283216 6.33567839 140.952764 6.33567839"></polygon>
                <path d="M155.674774,32.0470352 C154.581307,32.0470352 153.336281,31.9509548 151.943719,31.7551759 C150.55196,31.5622111 149.228141,31.3057286 147.972663,30.9865327 L148.041407,28.9656281 C149.296482,29.2852261 150.610251,29.5429146 151.978693,29.7370854 C153.347136,29.9316583 154.55799,30.0277387 155.607638,30.0277387 C157.68603,30.0277387 159.277186,29.6233166 160.384322,28.8112563 C161.491055,28.001608 162.045427,26.8426131 162.045427,25.3362814 C162.045427,24.4932663 161.885427,23.7796985 161.565829,23.1967839 C161.245829,22.6146734 160.805628,22.1242211 160.246432,21.7250251 C159.687638,21.3254271 159.03196,20.9845226 158.277387,20.6978894 C157.524824,20.4124623 156.714372,20.1443216 155.847638,19.8934673 C154.523417,19.5051256 153.393367,19.0898492 152.458693,18.6436181 C151.52201,18.1977889 150.756985,17.6896482 150.163618,17.120402 C149.569849,16.5491457 149.136884,15.8994975 148.862312,15.1674372 C148.588543,14.4369849 148.450653,13.5927638 148.450653,12.6335678 C148.450653,11.6064322 148.651658,10.6729648 149.050854,9.82673367 C149.451256,8.98211055 150.01608,8.25728643 150.745729,7.6518593 C151.475377,7.04884422 152.356181,6.58572864 153.383317,6.26653266 C154.408844,5.94653266 155.561809,5.78733668 156.839397,5.78733668 C158.666131,5.78733668 160.8,6.06030151 163.241809,6.60824121 L163.174271,8.66251256 C162.100503,8.38994975 161.023116,8.17809045 159.938492,8.02934673 C158.853467,7.88100503 157.867337,7.80663317 156.976482,7.80663317 C155.104724,7.80663317 153.614874,8.24080402 152.507739,9.10874372 C151.401005,9.9758794 150.849045,11.1409045 150.849045,12.601005 C150.849045,13.2619095 150.951156,13.8504523 151.155377,14.3634171 C151.362412,14.8759799 151.69809,15.3439196 152.166432,15.7676382 C152.635176,16.1893467 153.251457,16.5724623 154.01608,16.9137688 C154.779095,17.2574874 155.732663,17.5879397 156.875578,17.9075377 C157.946935,18.2279397 158.946332,18.5688442 159.868945,18.9354774 C160.794372,19.2996985 161.59397,19.7567839 162.266935,20.3039196 C162.939899,20.8522613 163.471357,21.518794 163.858492,22.3067337 C164.247236,23.0942714 164.441005,24.0695477 164.441005,25.2337688 C164.441005,27.4255276 163.688442,29.1083417 162.181709,30.2846231 C160.675377,31.4601005 158.505729,32.0470352 155.674774,32.0470352" id="Fill-5" fill="#FFFFFF"></path>
                <polygon id="Fill-6" fill="#FFFFFF" points="169.026734 31.6699497 171.356382 31.6699497 171.356382 6.33567839 169.026734 6.33567839"></polygon>
                <polyline id="Fill-7" fill="#FFFFFF" points="177.723417 6.33567839 193.233367 6.33567839 193.233367 8.35457286 180.053065 8.35457286 180.053065 17.8038191 192.412462 17.8038191 192.412462 19.7893467 180.053065 19.7893467 180.053065 29.6514573 193.509146 29.6514573 193.509146 31.6699497 177.723417 31.6699497 177.723417 6.33567839"></polyline>
                <polyline id="Fill-8" fill="#FFFFFF" points="198.47196 6.33567839 200.560402 6.33567839 214.153166 25.0299497 216.207437 28.0422111 216.377487 28.0422111 216.377487 6.33567839 218.534271 6.33567839 218.534271 31.6699497 216.41206 31.6699497 202.752161 12.9089447 200.799598 9.99879397 200.628744 9.99879397 200.628744 31.6699497 198.47196 31.6699497 198.47196 6.33567839"></polyline>
                <path d="M230.927839,32.0470352 C229.831156,32.0470352 228.587337,31.9509548 227.19598,31.7551759 C225.803417,31.5622111 224.479196,31.3057286 223.224925,30.9865327 L223.292864,28.9656281 C224.54794,29.2852261 225.860101,29.5429146 227.229749,29.7370854 C228.601407,29.9316583 229.809045,30.0277387 230.859497,30.0277387 C232.936281,30.0277387 234.527437,29.6233166 235.635377,28.8112563 C236.742111,28.001608 237.294874,26.8426131 237.294874,25.3362814 C237.294874,24.4932663 237.13608,23.7796985 236.81608,23.1967839 C236.496482,22.6146734 236.058291,22.1242211 235.499899,21.7250251 C234.938693,21.3254271 234.283015,20.9845226 233.53005,20.6978894 C232.776683,20.4124623 231.966633,20.1443216 231.098693,19.8934673 C229.77407,19.5051256 228.644824,19.0898492 227.709347,18.6436181 C226.773065,18.1977889 226.009246,17.6896482 225.414271,17.120402 C224.822513,16.5491457 224.387538,15.8994975 224.114573,15.1674372 C223.841206,14.4369849 223.703719,13.5927638 223.703719,12.6335678 C223.703719,11.6064322 223.902714,10.6729648 224.301508,9.82673367 C224.701508,8.98211055 225.266734,8.25728643 225.99799,7.6518593 C226.72804,7.04884422 227.607236,6.58572864 228.63397,6.26653266 C229.661106,5.94653266 230.812864,5.78733668 232.09206,5.78733668 C233.918794,5.78733668 236.050653,6.06030151 238.493266,6.60824121 L238.426131,8.66251256 C237.353568,8.38994975 236.273367,8.17809045 235.191156,8.02934673 C234.105327,7.88100503 233.120402,7.80663317 232.228342,7.80663317 C230.357387,7.80663317 228.86794,8.24080402 227.761206,9.10874372 C226.65407,9.9758794 226.100905,11.1409045 226.100905,12.601005 C226.100905,13.2619095 226.202211,13.8504523 226.408442,14.3634171 C226.615075,14.8759799 226.951558,15.3439196 227.419497,15.7676382 C227.885427,16.1893467 228.501709,16.5724623 229.26794,16.9137688 C230.032965,17.2574874 230.983317,17.5879397 232.126633,17.9075377 C233.199598,18.2279397 234.196583,18.5688442 235.12201,18.9354774 C236.046633,19.2996985 236.846231,19.7567839 237.518794,20.3039196 C238.190553,20.8522613 238.72201,21.518794 239.110754,22.3067337 C239.499497,23.0942714 239.693668,24.0695477 239.693668,25.2337688 C239.693668,27.4255276 238.939095,29.1083417 237.433166,30.2846231 C235.925628,31.4601005 233.757186,32.0470352 230.927839,32.0470352" id="Fill-9" fill="#FFFFFF"></path>
                <path d="M0,0.0454271357 L0,18.3517588 L9.43638191,18.3517588 L9.43638191,9.48180905 L18.3059296,9.48180905 L18.3059296,0.0454271357 L0,0.0454271357 L0,0.0454271357 Z M28.3063317,19.4846231 L28.3063317,28.3525628 L19.4371859,28.3525628 L19.4371859,37.7889447 L37.7423116,37.7889447 L37.7423116,19.4846231 L28.3063317,19.4846231 L28.3063317,19.4846231 Z M9.43638191,28.3525628 L9.43638191,19.4846231 L0,19.4846231 L0,37.7889447 L18.3059296,37.7889447 L18.3059296,28.3525628 L9.43638191,28.3525628 L9.43638191,28.3525628 Z M37.7423116,0.0454271357 L19.4371859,0.0454271357 L19.4371859,9.48180905 L28.3063317,9.48180905 L28.3063317,18.3517588 L37.7423116,18.3517588 L37.7423116,0.0454271357 L37.7423116,0.0454271357 Z M10.5688442,27.2209045 L27.1746734,27.2209045 L27.1746734,10.6146734 L10.5688442,10.6146734 L10.5688442,27.2209045 Z" id="Fill-11" fill="#E77A2D"></path>
            </g>
        </g>
    </g>
</svg>